<svg xmlns="http://www.w3.org/2000/svg" data-name="Layer 1" viewBox="0 0 5 5" x="0px" y="0px"><title>auto_car_speed_machine_automobile</title><path d="M1.794,2.21936a2.47726,2.47726,0,0,0-.25039-.02742q-.1272-.01049-.25446-.0198Q1.036,2.15381.78254,2.14007C.68807,2.13492.59329,2.13257.499,2.12522c-.016-.00125-.0191.02343-.00294.02491.08463.00778.16885.02011.25328.02985s.16892.01926.25347.02819q.13928.0147.27862.02858c-.03044.01755-.06108.03481-.09109.05307-.05039.03066-.10243.06052-.151.09452a.16307.16307,0,0,0-.01839-.04687c-.01049-.01764-.03635-.00615-.0391.01078-.00607.03738.00913.07872-.01093.1137a.05409.05409,0,0,1-.028.02478A.02434.02434,0,0,1,.928,2.48755L.91891,2.482a.06591.06591,0,0,1-.01537-.06117.22473.22473,0,0,1,.05826-.09149c.012-.01288-.0083-.03193-.02166-.02146a.22155.22155,0,0,0-.09685.1165A.11968.11968,0,0,0,.84512,2.485c-.04372.01732-.086.038-.12883.0577-.05317.02448-.10594.05027-.15721.07855a.42932.42932,0,0,1-.13118-.05863A.2197.2197,0,0,1,.33907,2.431a.25563.25563,0,0,1,.026-.1839.01228.01228,0,0,0-.01959-.01478.28255.28255,0,0,0,.00094.34979.36741.36741,0,0,0,.19175.11121,1.70991,1.70991,0,0,0,.25315.05021A1.31306,1.31306,0,0,0,.937,2.75319c.02387.00027.04765-.00012.07149-.00126a.47577.47577,0,0,0,.075-.00641A.02131.02131,0,0,0,1.083,2.70345c-.03908-.00763-.08061-.00883-.12028-.01293Q.90383,2.68445.84514,2.6763C.7704,2.666.69593,2.6538.62234,2.6371c.03841-.01443.07644-.03.11411-.04612.04565-.01956.09175-.038.136-.06035l.01726.013a.09981.09981,0,0,0,.13168-.0379.14713.14713,0,0,0,.02239-.078c.06008-.02546.11781-.05793.17534-.0882.03234-.017.06408-.03523.096-.05295l.04661-.02582.026-.01381.11645.01056a2.87911,2.87911,0,0,0,.29044.01785.028.028,0,0,0,.02411-.02829A.02862.02862,0,0,0,1.794,2.21936Z"></path><path d="M1.75129,2.401c-.00967-.02037-.04462-.019-.0461.00645a.38353.38353,0,0,1-.007.07679.228.228,0,0,1-.02792.06471.30271.30271,0,0,1-.10989.10351.88045.88045,0,0,1-.35058.07666A.01191.01191,0,0,0,1.21,2.75271a.79643.79643,0,0,0,.31974-.01312A.32511.32511,0,0,0,1.745,2.55714.20766.20766,0,0,0,1.75129,2.401Z"></path><path d="M2.89126,2.17838a.03051.03051,0,0,0-.02633-.02577.39462.39462,0,0,0-.09259.0093l-.08728.01485q-.08891.01447-.1785.02421c-.12011.01306-.24085.02218-.36157.02734-.06741.00288-.13487.00493-.20209.01087-.01585.0014-.01358.02332.00028.02622a1.66679,1.66679,0,0,0,.3636.025A2.65166,2.65166,0,0,0,2.66854,2.257c.03419-.00521.06846-.01052.10234-.01748A.37693.37693,0,0,0,2.873,2.21039.03134.03134,0,0,0,2.89126,2.17838Z"></path><path d="M2.82164,2.27065c-.05235.03221-.09813.07432-.15042.10688a.76945.76945,0,0,1-.16059.07532.78168.78168,0,0,1-.371.02715.91552.91552,0,0,1-.10578-.02345.739.739,0,0,1-.10764-.03591c-.01766-.00805-.03424.02011-.017.03033.03026.018.05971.03638.09166.05135a.57475.57475,0,0,0,.09885.03467.77488.77488,0,0,0,.209.02449.78764.78764,0,0,0,.38406-.10993.44624.44624,0,0,0,.16545-.14469A.02609.02609,0,0,0,2.82164,2.27065Z"></path><path d="M4.63131,1.74819c-.02151.00917-.041.0219-.06195.03218a.68075.68075,0,0,1-.06446.02744.671.671,0,0,1-.13388.03254,2.18385,2.18385,0,0,1-.29257.0149A3.69087,3.69087,0,0,0,3.7097,1.878l.02278-.017a1.20318,1.20318,0,0,0,.1009-.11863.22659.22659,0,0,1,.11462-.072.19983.19983,0,0,1,.13336.01257.279.279,0,0,1,.06148.03809c.01026.00855.01942.01832.0299.02657a.23145.23145,0,0,1,.02942.02437.01845.01845,0,0,0,.03151-.01827A.1705.1705,0,0,0,4.199,1.69114a.27551.27551,0,0,0-.06435-.04673.28463.28463,0,0,0-.14471-.02952.30877.30877,0,0,0-.14158.0421.32281.32281,0,0,0-.11041.11772.36666.36666,0,0,1-.06042.0799,1.08706,1.08706,0,0,1,.03859-.238,1.20929,1.20929,0,0,1,.11707-.2711.01038.01038,0,0,0-.01656-.01249.84945.84945,0,0,0-.20487.55133l-.00654,0a.00968.00968,0,0,0-.01028.00853q-.10508.01562-.20912.03825c-.064.014-.128.02877-.191.04644-.06377.01787-.1254.04216-.18886.06066-.01189.00347-.00428.02083.00737.01764.05686-.01559.11683-.02391.17486-.03434.05847-.01052.11676-.02184.17548-.031.11555-.018.23194-.03171.34835-.04284.11746-.01122.23556-.01776.35353-.01972a2.72726,2.72726,0,0,0,.29591-.01223.71552.71552,0,0,0,.16217-.03824.29979.29979,0,0,0,.13767-.09088A.02548.02548,0,0,0,4.63131,1.74819Z"></path><path d="M3.01657,1.70917c-.18616-.01186-.37316-.01487-.55962-.01957-.18728-.00473-.37506-.00482-.56225.00337-.18674.00817-.37322.02148-.55933.03893q-.13956.01308-.2788.02937a2.58633,2.58633,0,0,0-.26651.041.94419.94419,0,0,0-.26071.09569.66987.66987,0,0,0-.10643.0734.67583.67583,0,0,0-.088.09841c-.01217.0156.01163.0331.02435.01837a.47652.47652,0,0,1,.08729-.07353.68691.68691,0,0,1,.094-.05682A.9991.9991,0,0,1,.765,1.87994a2.46455,2.46455,0,0,1,.25914-.04174q.13569-.01634.27174-.0295c.1819-.01769.36418-.03091.54664-.04111.1842-.0103.36853-.01977.55293-.02535.10175-.00308.20351-.006.30532-.00479.10392.0012.20776.00461.31165.00712C3.03494,1.74512,3.03978,1.71064,3.01657,1.70917Z"></path><path d="M2.679,1.81256a2.60787,2.60787,0,0,0-.33078.07161,3.08464,3.08464,0,0,0-.31733.11408.01268.01268,0,0,0,.00977.0234,3.07588,3.07588,0,0,1,.32027-.09108c.10746-.02584.21648-.04667.32572-.06339A.02759.02759,0,0,0,2.679,1.81256Z"></path><path d="M3.65442,1.28992a.34288.34288,0,0,0-.044.08806c-.0115.03105-.02359.062-.03418.09333s-.02106.06289-.03222.09411a.7242.7242,0,0,1-.033.08363.117.117,0,0,1-.02242.033.19.19,0,0,1-.03323.01737.26558.26558,0,0,1-.06469.03006.50218.50218,0,0,1-.184.00435c-.01288-.00131-.019.01871-.00576.02281a.33129.33129,0,0,0,.292-.00041.18209.18209,0,0,0,.04051-.054.41531.41531,0,0,0,.032-.06689c.02049-.05137.04184-.10228.063-.15336.01189-.02867.02277-.05779.0341-.08668a.33343.33343,0,0,0,.02489-.09211A.01865.01865,0,0,0,3.65442,1.28992Z"></path><path d="M4.57756,1.62722a.78119.78119,0,0,0-.20636-.19237,1.33145,1.33145,0,0,0-.24839-.13392,2.02154,2.02154,0,0,0-.60707-.133c-.10928-.009-.21891-.013-.32851-.01576-.10785-.00267-.21579-.00474-.32366-.00161A1.59134,1.59134,0,0,0,2.249,1.272a1.52843,1.52843,0,0,0-.26152.15244,1.86358,1.86358,0,0,0-.23321.19712c-.01778.01792-.03441.03644-.05314.05344a.01011.01011,0,0,0,.01232.016c.04-.02982.083-.05556.12375-.08449.04-.02841.08008-.05682.1206-.0845a2.418,2.418,0,0,1,.25037-.15559,1.22373,1.22373,0,0,1,.27824-.10438A1.75629,1.75629,0,0,1,2.7916,1.22c.10351-.006.2073-.0048.31091-.00239.107.00249.21411.00561.321.01257a2.22919,2.22919,0,0,1,.60617.111,1.1848,1.1848,0,0,1,.45271.27922c.01692.01728.03422.034.05163.05078a.03086.03086,0,0,0,.0408-.00315A.03155.03155,0,0,0,4.57756,1.62722Z"></path><path d="M4.79835,2.06967A.65.65,0,0,0,4.76983,1.941a.28411.28411,0,0,0-.02646-.058.113.113,0,0,0-.0413-.04629.01127.01127,0,0,0-.01523.00909.1605.1605,0,0,0,.01134.05695l.01692.058a.6343.6343,0,0,1,.02009.12371,1.185,1.185,0,0,1,.00223.12287c-.00058.022-.00155.04392-.00268.06586-.00123.0238-.00707.05117.01438.0676a.02838.02838,0,0,0,.03326-.00015c.0217-.01332.01805-.04639.0191-.06861.001-.022.00187-.04392.00228-.06589A1.00846,1.00846,0,0,0,4.79835,2.06967Z"></path><path d="M4.66509,2.31459c-.09171.02327-.13734.1211-.16569.20313a1.52343,1.52343,0,0,0-.04668.16438q-.00921.04108-.01624.0826a.13479.13479,0,0,0,.00832.08633.01818.01818,0,0,0,.02538.00332.142.142,0,0,0,.03119-.07293c.005-.02662.00951-.05326.01528-.07973.01091-.05006.024-.09973.03938-.14861a.41787.41787,0,0,1,.11915-.21443C4.68485,2.33084,4.67889,2.31109,4.66509,2.31459Z"></path><path d="M4.41765,2.86165a.10882.10882,0,0,1-.019-.00078l-.02163.00254c-.01346.00158-.02662.00386-.03992.00643-.02755.00532-.055.01083-.08243.01686-.05475.01206-.10923.02762-.16328.04251-.10707.0295-.21373.06033-.32045.09107l-.08755.02521c-.0297.00855-.07444.01323-.08756.04529a.02867.02867,0,0,0,.00926.033c.02579.01842.05824.0036.08552-.00427l.08148-.02353.15995-.0462q.15978-.04615.31814-.09659c.02878-.00911.057-.02.08515-.031.01453-.00565.02928-.01092.04342-.01749L4.40139,2.894c.00748-.00368.01387-.0105.02142-.0135A.00987.00987,0,0,0,4.41765,2.86165Z"></path><path d="M3.56094,2.55184a.264.264,0,0,0-.13538-.11612.23859.23859,0,0,0-.19387.0206A.67421.67421,0,0,0,2.983,2.75c-.05674.10943-.0983.22579-.14476.33973a2.02625,2.02625,0,0,1-.08571.18595c-.01524.0287-.03244.057-.04988.0852-.01819.02947-.03585.05961-.05617.08766-.01471.0203.01216.04957.03234.032a.57235.57235,0,0,0,.11544-.13288,1.35262,1.35262,0,0,0,.08215-.15786c.04812-.10748.08705-.21877.135-.32631a.896.896,0,0,1,.18054-.28494.25544.25544,0,0,1,.15232-.08052.16205.16205,0,0,1,.128.05337.47978.47978,0,0,1,.06044.42129c-.00256.01642.024.02381.0288.00727A.92791.92791,0,0,0,3.608,2.749.35736.35736,0,0,0,3.56094,2.55184Z"></path><path d="M.33773,3.108a.48631.48631,0,0,0-.03146-.073Q.292,3.002.28021,2.96806A1.00757,1.00757,0,0,1,.241,2.8229a1.06323,1.06323,0,0,1-.0181-.14785C.22065,2.624.22368,2.573.2264,2.522.227,2.51094.20945,2.5047.2062,2.51691a.8234.8234,0,0,0-.0158.31029.95729.95729,0,0,0,.03206.153q.01109.03712.02519.07325a.284.284,0,0,0,.03655.07694C.30175,3.15164.3454,3.13891.33773,3.108Z"></path><path d="M2.2974,3.41043a.97818.97818,0,0,1-.09788-.00705c-.03269-.00344-.06549-.00524-.09822-.00821q-.09714-.00883-.19352-.02448c-.1292-.021-.25687-.05145-.38367-.08369a3.44693,3.44693,0,0,0-.77-.14138,1.11057,1.11057,0,0,0-.4245.06453.01014.01014,0,0,0,.00529.01932,1.82463,1.82463,0,0,1,.191-.02392,1.44684,1.44684,0,0,1,.1857.00051,2.57025,2.57025,0,0,1,.37292.05236l-.01266.01087a.49.49,0,0,1-.05721.043.3919.3919,0,0,1-.12463.05156A.43024.43024,0,0,1,.61749,3.332a.62943.62943,0,0,1-.13424-.08672c-.00747-.00607-.0207.00309-.01561.01212a.38183.38183,0,0,0,.2542.17471.44858.44858,0,0,0,.31022-.05054.43287.43287,0,0,0,.076-.05309A.23142.23142,0,0,0,1.14,3.29534L1.15234,3.277l.00192-.00363c.23494.05257.46521.1258.70315.16464a1.75935,1.75935,0,0,0,.218.02352.91206.91206,0,0,0,.10991-.00114c.03762-.00315.07513-.01051.11245-.01618C2.3161,3.44139,2.31734,3.41054,2.2974,3.41043Z"></path><path d="M2.656,3.0065a.28984.28984,0,0,0-.16025-.16658.5232.5232,0,0,0-.2484-.03876c-.0963.005-.19188.02333-.28751.03512q-.28707.03541-.57645.04655a4.9274,4.9274,0,0,1-.57074-.00355A.91294.91294,0,0,1,.2841,2.69652c-.00847-.00726-.02129.00554-.0139.014a.62576.62576,0,0,0,.20828.15459A.25763.25763,0,0,0,.43225,2.894a.20018.20018,0,0,0-.07715.14575.01274.01274,0,0,0,.02438.00615A.26221.26221,0,0,1,.46607,2.938a.2037.2037,0,0,1,.06014-.03093.33339.33339,0,0,1,.03929-.00733.92342.92342,0,0,0,.1251.03166,1.82013,1.82013,0,0,0,.27773.0246q.09945.00264.199.00216l.00807.00293a.77249.77249,0,0,1,.08345-.00166c.028.00014.056.00073.08394.00233a.54519.54519,0,0,1,.15716.03014.44384.44384,0,0,1,.21677.18388.9269.9269,0,0,0,.09456.1396c.01443.01507.04616.00766.04121-.01729A.44744.44744,0,0,0,1.785,3.148a.64883.64883,0,0,0-.102-.12613A.37322.37322,0,0,0,1.56475,2.945q.09808-.00624.19594-.01532a.58929.58929,0,0,1,.20538.09915c.04484.0314.08747.06578.13335.09572a.64015.64015,0,0,0,.15083.06928A.01282.01282,0,0,0,2.25969,3.17a.59687.59687,0,0,1-.10707-.081c-.03387-.0284-.0664-.05833-.10025-.08677a.8572.8572,0,0,0-.12456-.09q.08273-.00966.16521-.02129a.97214.97214,0,0,1,.2721-.01459.32656.32656,0,0,1,.15965.06485A.67253.67253,0,0,0,2.43091,2.931a.97086.97086,0,0,0-.12483.00013l-.063.00479a.28218.28218,0,0,0-.06254.00938c-.0114.00373-.00689.01924.003.02117a.3758.3758,0,0,0,.05393.00336c.01809.00088.03615.0021.05416.004.03609.00388.07227.009.10809.01489.03507.00575.06973.01314.10464.01965a.12025.12025,0,0,1,.04058.01232l.01.009.00323.00378-.02031-.003a.5217.5217,0,0,0-.0768-.00366.84968.84968,0,0,0-.15719.01665.01.01,0,0,0,.00276.01974.69586.69586,0,0,1,.152.00919c.02442.004.04829.01007.07247.01517.02346.00494.0479.0137.07175.01624A.16747.16747,0,0,1,2.582,3.188a.02173.02173,0,0,0,.00215.02788.021.021,0,0,0,.0279.0019A.20306.20306,0,0,0,2.656,3.0065Z"></path><path d="M3.61477,2.28306A.383.383,0,0,0,3.3753,2.1635a.471.471,0,0,0-.28259.06774A.53591.53591,0,0,0,2.892,2.444a1.07823,1.07823,0,0,0-.10112.31554c-.00235.01232.0167.01436.01926.00227a.73031.73031,0,0,1,.28139-.4498A.4314.4314,0,0,1,3.327,2.23265.31122.31122,0,0,1,3.53778,2.31a.34373.34373,0,0,1,.10947.21349A.02444.02444,0,0,0,3.6955,2.523.27123.27123,0,0,0,3.61477,2.28306Z"></path><path d="M4.22645,2.52767a2.24782,2.24782,0,0,0-.25478.07774c-.04166.01408-.08333.02811-.12481.04271-.02073.0073-.04144.01454-.0619.02256-.02153.00845-.04171.01944-.06287.02838-.00983.00415-.00595.021.00508.01855.02222-.005.04478-.0077.067-.01328.01986-.005.0395-.01058.05918-.01626.04341-.01253.08666-.02556.12991-.03863a2.2514,2.2514,0,0,0,.25338-.08455C4.25622,2.55632,4.24874,2.523,4.22645,2.52767Z"></path><path d="M4.58919,2.21432a.33115.33115,0,0,0-.14082.20042c-.00521.02337.03257.03251.04053.01023a.47118.47118,0,0,1,.1169-.189A.01363.01363,0,0,0,4.58919,2.21432Z"></path><path d="M3.25724,3.76549c-.05354.01-.1084.01845-.16253.02453l-.03458.0031a.96117.96117,0,0,1-.07164-.06446.468.468,0,0,1-.06511-.09156.4479.4479,0,0,1-.05549-.22289.00984.00984,0,0,0-.01953-.0023.40819.40819,0,0,0,.0295.24419.41339.41339,0,0,0,.068.10531c.00984.01109.02049.02248.03191.03318l-.03789-.00231-.00966-.00982-.01747-.01194a.3529.3529,0,0,1-.03479-.028.39884.39884,0,0,1-.05754-.06706.36226.36226,0,0,1-.06165-.16712c-.0012-.01114-.0199-.01143-.02.00022a.364.364,0,0,0,.049.18587.35006.35006,0,0,0,.05976.07687l.00728.00691a.288.288,0,0,1-.16011-.0957.16663.16663,0,0,1-.037-.13348c.0022-.011-.01494-.015-.0189-.00477a.21626.21626,0,0,0,.09015.25169.52337.52337,0,0,0,.33413.04884.91122.91122,0,0,0,.1008-.01524.55268.55268,0,0,0,.10146-.03468A.01545.01545,0,0,0,3.25724,3.76549Z"></path><path d="M3.4368,2.702a.10623.10623,0,0,0-.04792-.03112A.15033.15033,0,0,0,3.326,2.66793a.202.202,0,0,0-.10976.0575.63857.63857,0,0,0-.13835.23993,1.01534,1.01534,0,0,0-.04371.55139.29036.29036,0,0,0,.06644.14427.1569.1569,0,0,0,.12714.0486A.0099.0099,0,0,0,3.23,3.69074.21284.21284,0,0,1,3.10577,3.518a.94432.94432,0,0,1-.01644-.24417,1.02026,1.02026,0,0,1,.13785-.45624.21723.21723,0,0,1,.07953-.0881.12123.12123,0,0,1,.11018-.0011C3.43151,2.736,3.44842,2.71392,3.4368,2.702Z"></path><path d="M3.54041,3.21363a.21263.21263,0,0,0-.00981-.07373.01021.01021,0,0,0-.01871.00017.39947.39947,0,0,0-.00967.06886c-.00319.024-.00686.04786-.01162.07165a.92172.92172,0,0,1-.03827.13816,1.10457,1.10457,0,0,1-.13827.25151c-.013.01855.01142.04614.02967.0294a.60931.60931,0,0,0,.16165-.25989.68893.68893,0,0,0,.03242-.1484A.6253.6253,0,0,0,3.54041,3.21363Z"></path><path d="M4.59567,3.22421c-.06146-.01291-.13838.00809-.188-.04084a.17171.17171,0,0,1-.04175-.07911.68573.68573,0,0,1-.01715-.12711c-.00059-.00931-.01614-.0116-.01861-.00223a.38842.38842,0,0,0-.02037.14216.18734.18734,0,0,0,.05439.11591.21925.21925,0,0,0,.23675.02848A.01962.01962,0,0,0,4.59567,3.22421Z"></path><path d="M4.81343,2.56815a.7677.7677,0,0,0-.01288-.088.17928.17928,0,0,0-.03-.08259A.01022.01022,0,0,0,4.75317,2.4a.18906.18906,0,0,0-.002.0707c.00142.02617.00272.05232.00354.07852a1.24332,1.24332,0,0,1-.00442.15143,1.15592,1.15592,0,0,1-.06469.29374q-.01488.04055-.032.08022a.43276.43276,0,0,0-.03055.08409.024.024,0,0,0,.03813.02164.26745.26745,0,0,0,.04842-.06905.60439.60439,0,0,0,.03276-.07118,1.07739,1.07739,0,0,0,.048-.15554A1.01521,1.01521,0,0,0,4.81343,2.56815Z"></path><path d="M4.69335,2.52752a.0123.0123,0,0,0-.01941-.00794.14005.14005,0,0,0-.04435.0617.722.722,0,0,0-.0315.07228.90756.90756,0,0,0-.04313.157.69911.69911,0,0,0,.0009.31836c.00658.02233.04246.01578.044-.00616.00357-.05025.0028-.10027.00434-.1506a1.07629,1.07629,0,0,1,.01584-.15393,1.35374,1.35374,0,0,1,.034-.14558c.00713-.02435.015-.04855.023-.07262A.16913.16913,0,0,0,4.69335,2.52752Z"></path><path d="M4.27948,2.01693c-.01807.00154-.03615.00491-.054.00813l-.02683.00524a.183.183,0,0,1-.02952.00793.01014.01014,0,0,0,.00022.02c.01759.00075.0359.00768.05361.01.01792.00238.03605.00493.05411.00582.02649.00131.09842.01186.0978-.0305C4.37425,2.00143,4.3058,2.0147,4.27948,2.01693Z"></path></svg>