<svg xmlns="http://www.w3.org/2000/svg" viewBox="0 0 128 128" x="0px" y="0px"><g><path d="M107.58,72.965c.007-.095.015-.19.015-.293a1.1,1.1,0,1,1,2.2,0,4.833,4.833,0,0,1-.073.741,12.045,12.045,0,0,0,1.878-1c-.176-.551-.411-1.086-.572-1.644a1.1,1.1,0,0,1,2.121-.58c.08.257.176.507.271.763a5.937,5.937,0,0,0,1.167-2.194,1.526,1.526,0,0,0-.22-.058,1.1,1.1,0,0,1,.579-2.128.642.642,0,0,1,.11.036c.015-.1.037-.2.052-.3-.008-.073-.008-.146-.015-.227-.022-.294-.059-.6-.1-.925a1.133,1.133,0,0,1-1.21-.807,1.121,1.121,0,0,1,.726-1.335,8.575,8.575,0,0,0-.484-1.189,4.229,4.229,0,0,0-.639-.932c0,.037-.007.081-.007.125v.477a1.1,1.1,0,0,1-2.2,0,7.17,7.17,0,0,1,.1-1.314,2.751,2.751,0,0,0-1,.228,4.326,4.326,0,0,0-1.849,1.643c-.022.037-.044.081-.066.118a8,8,0,0,1,1.255.572,1.1,1.1,0,0,1-1.115,1.9,5.209,5.209,0,0,0-1.079-.485c-.022.074-.059.154-.081.235a17.323,17.323,0,0,0-.719,3.581c.418-.2.837-.4,1.24-.646,1.218-.741,2.319,1.167,1.108,1.9-.712.433-1.511.719-2.2,1.2a.852.852,0,0,1-.25.11c.008.565.044,1.057.081,1.438a10.586,10.586,0,0,0,.154,1.086,1.1,1.1,0,0,1-.029.323,1.511,1.511,0,0,0,.514.3.072.072,0,0,0,.029-.037c.044-.051.066-.073.073-.08a1.062,1.062,0,0,0,.1-.147c.022-.044.036-.066.044-.081s.007-.037.014-.059S107.565,72.965,107.58,72.965Zm16.026-34.114a.836.836,0,0,1,.374.932c-.315,1.871-.256,4.029-1.1,5.768-.785,1.629-2.789,2.069-4.286,2.869a4.514,4.514,0,0,1,.91.851,5.754,5.754,0,0,1,.815,1.108,11,11,0,0,1,1.012,2.267c.11.367.221.727.323,1.086q.121.54.242,1.057a46.1,46.1,0,0,1,.712,6.979,26.274,26.274,0,0,1,.03,4.549,8.912,8.912,0,0,1-.338,1.761,3.923,3.923,0,0,1-2.788,2.759c-.543.162-3.471.03-3.64.661-1.189,4.285-6.934,5.466-10.523,3.669-1.717,1.475-6.3,2.179-8.57,2.7-2.936.675-5.8,1.636-8.689,2.48-2.392.646-4.667,1.3-6.736,1.915-1.035.309-2.01.624-2.935.881s-1.8.492-2.59.7c-2,.558-3.515,1-4.359,1.255a1.677,1.677,0,0,1-.455.286,3.16,3.16,0,0,1-2.466.008,1.947,1.947,0,0,1-.682-.521c-2.957,4.645-9.349,6.244-14.507,4.8a4.633,4.633,0,0,1-1.255,1.343,6.648,6.648,0,0,1-.815.5,6.433,6.433,0,0,1-.865.44c-.3.117-.617.242-.94.374-.323.1-.653.191-1,.286a21.433,21.433,0,0,1-4.424.573c-1.578.066-3.214-.044-4.932-.1a85.652,85.652,0,0,1-11.073-1.409c-3.874-.741-7.528-1.688-10.8-2.62-.822-.227-1.629-.44-2.414-.653-.793-.264-1.571-.521-2.326-.77-1.292-.492-2.671-.793-3.956-1.189-.638-.2-1.262-.411-1.871-.668a6.831,6.831,0,0,1-.924-.484,4.256,4.256,0,0,1-.881-.734,3.469,3.469,0,0,1-.374-.455c-.117-.2-.228-.4-.323-.6a2.715,2.715,0,0,1-.169-1.263,3.307,3.307,0,0,1,1-1.885,7.866,7.866,0,0,1,1.7-1.211c.381-.206.579-.3.579-.3a3.868,3.868,0,0,1,.881-.257c-.007-.029-.015-.051-.022-.081a6.489,6.489,0,0,1,.022-1.878,7.02,7.02,0,0,1,1.042-2.833,2.134,2.134,0,0,1,.271-.4,6.139,6.139,0,0,1,.771-.829,3.764,3.764,0,0,1,.352-.279l.11-.073c.059-.044.008.2.008.183v.154a1.362,1.362,0,0,1,.029-.161s0-.081.007-.081v-.036l-.014-.074c-.03-.066-.052-.139-.081-.2-.052-.14-.1-.287-.162-.441-.1-.3-.19-.653-.3-1.027s-.169-.807-.257-1.247a11.415,11.415,0,0,1-.088-1.475,9.016,9.016,0,0,1,.667-3.434A11.226,11.226,0,0,1,12.722,61a16.853,16.853,0,0,1,1.57-1.49,15.4,15.4,0,0,1,1.85-1.342,19.578,19.578,0,0,1,4.483-1.96c1.57-.506,3.192-.939,4.74-1.533.426-.154.859-.308,1.292-.47a13.61,13.61,0,0,1,1.365-.426c.917-.264,1.842-.462,2.766-.675a19.888,19.888,0,0,0,5.276-1.717,26.368,26.368,0,0,0,4.63-3.691c1.556-1.438,3.163-2.935,4.939-4.358a23.4,23.4,0,0,1,6.039-3.581,45.238,45.238,0,0,1,14.118-3.1c2.525-.169,5.027-.338,7.485-.5,2.429-.169,4.946-.33,7.36-.279,1.409.015,2.81.088,4.19.206.609-3.207,5.738-2.906,7.4-.58,2.429.881,5.078.69,7.624,1,1.769.22,3.537.528,5.3.792,4.256.624,8.542,1.042,12.754,1.894A4.607,4.607,0,0,1,123.606,38.851Zm-1.915,5.071c.286-1.285.4-2.583.594-3.882a2.753,2.753,0,0,0-2.95.176,42.074,42.074,0,0,1-.256,6.164C120.26,45.866,121.375,45.316,121.691,43.922Zm-2.069,22.307a16.779,16.779,0,0,0,.132-3.251c-.081-1.585-.044-3.537-.272-5.76a20.085,20.085,0,0,0-.638-3.486,6.628,6.628,0,0,0-.294-.887c-.014-.044-.036-.1-.051-.147a81.556,81.556,0,0,1-14.955,4.058c-4.065.711-7.279,1.108-9.774,1.372A55.869,55.869,0,0,1,92.9,72.657c1.02-.213,1.959-.418,2.818-.587,1.313-.264,2.436-.44,3.368-.594s1.7-.184,2.3-.228c1.182-.066,1.7-.007,1.725.147s-.462.374-1.585.7c-.565.169-1.292.323-2.187.587s-1.981.543-3.251.9c-3.441.983-6.809,1.842-10.331,2.6-2.18.485-4.6,1.02-7.28,1.607-1.335.316-2.737.617-4.19.984-1.387.367-2.839.755-4.351,1.152.029.822.066,1.5.081,2.025v.418l.066-.022s1.519-.257,4.469-.844c2.964-.521,7.3-1.651,12.958-3.184,8.644-2.517,14.119-4.322,16.21-5.027,0-.095-.015-.433-.007-1.012a29.7,29.7,0,0,1,.212-3.06,26.243,26.243,0,0,1,1.072-4.91,14.183,14.183,0,0,1,1.387-3.045,8.718,8.718,0,0,1,1.225-1.548,5.943,5.943,0,0,1,1.857-1.255,5.32,5.32,0,0,1,2.245-.425,6.51,6.51,0,0,1,1.064.11,3.525,3.525,0,0,1,1.115.411,4.895,4.895,0,0,1,1.556,1.357,8.125,8.125,0,0,1,.9,1.482,17.476,17.476,0,0,1,1.386,4.961,21.187,21.187,0,0,1,.213,2.377c.228-.146.47-.3.7-.462.125-.081.2-.161.309-.235a1.451,1.451,0,0,0,.139-.176,2.894,2.894,0,0,0,.308-.712A4.553,4.553,0,0,0,119.622,66.229Zm-2.444-18.7a26.969,26.969,0,0,0,.506-6.7c-1.658-.345-3.324-.624-5-.866a20.9,20.9,0,0,0-1.049,5.54,19.5,19.5,0,0,0,1.871.7c.807.265,1.643.514,2.48.815C116.386,47.172,116.789,47.326,117.178,47.525Zm.14,3.265c-.059-.059-.1-.125-.169-.184a10.652,10.652,0,0,0-3.926-1.841q-.627-.221-1.277-.441-.66-.275-1.343-.55c-.462-.169-.873-.426-1.321-.638s-.873-.463-1.3-.719c-1.123-.654-2.231-1.365-3.354-2.07a22.01,22.01,0,0,1,2.576,4.983.844.844,0,0,1-.294,1.13,48.572,48.572,0,0,1-13.164,3.559.643.643,0,0,1-.323.3c.088.726.169,1.467.235,2.216,2.443-.441,5.577-.984,9.5-1.776A92.052,92.052,0,0,0,117.318,50.79Zm-6.282-11.066c-1.093-.146-2.179-.286-3.272-.433.029.257.212.213.572.463a2.035,2.035,0,0,1,.785.968,5.72,5.72,0,0,1,0,3.368.433.433,0,0,1-.044.14c.308.176.609.345.91.506A27.038,27.038,0,0,1,111.036,39.724ZM107.6,43.357a5.424,5.424,0,0,0,.11-1.5c-.044-.551-.147-.646-.595-.874a1.827,1.827,0,0,1-.99-1.915c-.9-.117-1.791-.242-2.686-.381-.242-.037-.484-.074-.726-.1a6.406,6.406,0,0,1-.4,1.768,42.954,42.954,0,0,1,4.007,2.224C106.744,42.843,107.169,43.1,107.6,43.357Zm-2.18,5.958c-1.108-2.583-2.047-5.107-5.144-5.966a22.989,22.989,0,0,0-8.013-.455c-.477.037-.976.074-1.475.11,1.923,2.583,2.569,6.2,2.928,9.408A47.325,47.325,0,0,0,105.415,49.315Zm-4.623-9.6a4.815,4.815,0,0,0,.272-1.285c-1.871-.146-3.823-.212-5.694-.469.785.227,1.563.447,2.326.668,1.027.359,2.047.719,3.052,1.064Zm-2.7,1.482c-.367-.132-.719-.264-1.093-.4-.551-.184-1.116-.353-1.681-.521-.293-.052-.6-.1-.954-.154a15.325,15.325,0,0,0-4.131-.1,38.625,38.625,0,0,0-6.142,1.159,29.342,29.342,0,0,0-3.727,1.284,22.034,22.034,0,0,0-3.941,2.092,14.808,14.808,0,0,0-3.441,3.566c-1.064,1.468-2.048,3.17-3.17,4.975a22.853,22.853,0,0,1-4.345,5.43,2.263,2.263,0,0,1-.249.213.621.621,0,0,1-.191.147c-.1.08-.213.154-.323.235a7.2,7.2,0,0,1-.814.55,11.76,11.76,0,0,1-1.776.873c-1.2.492-2.422.888-3.676,1.27-2.51.755-5.137,1.386-7.713,2.348A17.762,17.762,0,0,0,44.892,67.5c.983.036,1.908.073,2.744.1.242.015.477.022.7.037.22-.007.345-.007.543-.029.616-.133,1.306-.287,1.878-.389a10.662,10.662,0,0,1,.191,1.144c.007.375.037.734.029,1.057a7.465,7.465,0,0,1-.249,1.314c-.059.234-.132.447-.2.653a17.588,17.588,0,0,1-.5,2.208,15.681,15.681,0,0,1-2.37,4.763,13.267,13.267,0,0,1-5.783,4.549,25.207,25.207,0,0,1-2.957.837c.11.007.227.014.338.029.242.015.477.044.726.051l.785-.044c.529-.022,1.1-.139,1.7-.227a37.915,37.915,0,0,1,4.043-.646l.588-.022a2.948,2.948,0,0,1,.7.015c.308.037.616.073.932.1l.47.058.242.022c.036.015.088.008.11.022l.007.132c.015.338.029.683.044,1.028.007.176.022.352.015.521l-.059.469-.051.375-.132.374a2.72,2.72,0,0,1-.345.719,5.224,5.224,0,0,1-2.392,1.9c-.221.088-.448.183-.683.271-.227.059-.455.125-.682.183-.47.118-.94.235-1.417.36s-.961.154-1.452.235c-.5.059-1,.154-1.505.183s-1.027.052-1.548.074c-.257.014-.521.022-.785.036l-.8-.022c-.536-.014-1.079-.029-1.629-.051s-1.093-.088-1.658-.139c-1.123-.074-2.261-.272-3.427-.441-2.334-.381-4.748-1-7.214-1.592A56.971,56.971,0,0,1,15.98,85.4a22.681,22.681,0,0,1-4.043-2.033,13.442,13.442,0,0,1-2.62-2.179,3.488,3.488,0,0,1-.778.447s-.132.052-.374.155a6.9,6.9,0,0,0-.954.521c-.411.308-.337.234-.359.315-.044-.029.124.242.374.4a1.968,1.968,0,0,0,.492.3,4.922,4.922,0,0,0,.682.323c1,.426,2.26.785,3.728,1.284.359.11.77.294,1.159.448.345.125.7.257,1.064.389s.727.264,1.108.4q.606.188,1.233.375A107.211,107.211,0,0,0,28.455,89.6,68.2,68.2,0,0,0,40.46,90.855a20.9,20.9,0,0,0,8.27-1.034c.234-.11.462-.213.682-.316A6.741,6.741,0,0,0,50,89.146a2.541,2.541,0,0,0,.778-.639,2.637,2.637,0,0,0,.484-1.365,6.466,6.466,0,0,0,.022-1.115c-.015-.264-.029-.4-.029-.4a3.207,3.207,0,0,1,.095-1.137,1.842,1.842,0,0,1-.359-.8s-.015-.117-.052-.345-.088-.572-.132-1.042a21.259,21.259,0,0,1-.066-4.153,13.87,13.87,0,0,1,2.165-6.626,11.856,11.856,0,0,1,8.13-4.946,10.1,10.1,0,0,1,2.745-.088,7.233,7.233,0,0,1,.77.154.987.987,0,0,1,.595.022c4.116,1.335,5.077,6.465,4.74,10.992.264-.066.521-.139.778-.2a1.078,1.078,0,0,1,0-.22,44.843,44.843,0,0,0,.124-10.266c-.146-2.429-.007-6.054-1.7-8.028a.792.792,0,0,1-.536-.969c.5-1.959,2.026-4.923,4.22-5.628.022-.058.051-.11.08-.169,2.217-3.595,3.912-6.993,7.9-8.827a20.438,20.438,0,0,1,5.13-1.468.842.842,0,0,1,.513-.088c2.26-.345,4.572-.484,6.693-.6A32.41,32.41,0,0,1,98.092,41.192ZM91.121,73.031a53.674,53.674,0,0,0,1.013-14.742c-4.146.389-5.783.353-5.819.074s1.563-.749,5.716-1.527c-.073-.851-.154-1.7-.257-2.524-.646.088-1.284.184-1.93.272a.914.914,0,0,1-.873.124,83.723,83.723,0,0,0-9.517,1.754c-1.218,1.857-6.1,1.945-8.542,2.246,1.116,1.937,1.262,4.512,1.416,6.626a54.442,54.442,0,0,1,.015,11.675c.47-.125.954-.257,1.416-.375,1.475-.359,2.892-.653,4.242-.961,2.7-.587,5.144-1.042,7.33-1.482C87.5,73.78,89.419,73.391,91.121,73.031ZM89.954,52.947c.712-.1,1.424-.19,2.136-.293-.345-3.17-.984-7.008-3.148-9.3a1.1,1.1,0,0,1-.14-.2c-.425.037-.858.074-1.284.125C88.949,46.328,89.235,49.667,89.954,52.947Zm.426-16.136a4.276,4.276,0,0,1,.293-.6c-1.012-.917-3.808-1.4-4.212.037C87.782,36.393,89.1,36.584,90.38,36.811ZM88.318,53.175c-.69-3.28-.947-6.648-2.524-9.65a15.239,15.239,0,0,0-5.21,1.7c-2.811,1.643-4.256,4.351-5.856,7.03,1.732.22,4.234.917,4.85,2.465A87.708,87.708,0,0,1,88.318,53.175ZM83.7,39.666a34.248,34.248,0,0,1,5.438-.815,56.4,56.4,0,0,0-6.37-.734c-1.291-.117-2.619-.088-3.962-.1-1.35.007-2.7.11-4.1.176-2.855.2-5.768.345-8.74.572-1.416.154-2.832.242-4.182.477-.683.11-1.365.183-2.025.316s-1.307.286-1.96.425c-.653.118-1.269.345-1.893.521-.264.088-.528.162-.792.242,3.111.881,6.457.8,9.656,1.02a49.961,49.961,0,0,1,9.841,1.776.228.228,0,0,1,.073.029c.235-.183.462-.367.712-.528a8.932,8.932,0,0,1,1.108-.668c.367-.2.719-.411,1.086-.572s.726-.338,1.078-.5.712-.286,1.057-.426A30.889,30.889,0,0,1,83.7,39.666Zm-6,16.106c1.277-.719-2.774-1.893-3.471-1.922-1.71-.074-2.943,1.592-3.625,3.2C72.96,56.668,75.631,56.939,77.7,55.772Zm-6.281-8.8a19.469,19.469,0,0,1,1.775-2.084,75.474,75.474,0,0,0-12.724-1.7,24.62,24.62,0,0,1-7.727-1.548l-.433.184c-.293.117-.587.227-.865.359l-.8.426a29.784,29.784,0,0,0-5.739,4.234c-1.746,1.57-3.39,3.214-5.114,4.7-.213.184-.418.374-.646.558-.249.176-.491.352-.741.528a.537.537,0,0,1-.081.059c4.5,1.027,8.872,2.282,13.48,2.979,4.029.616,8.336.022,12.225,1.321a.71.71,0,0,0,.081-.059,21.388,21.388,0,0,0,3.984-4.909C69.217,50.262,70.252,48.53,71.419,46.967Zm-4.11,30.284c.037-.9.066-1.886.008-2.906a11.035,11.035,0,0,0-.558-3.089,3.932,3.932,0,0,0-1.945-2.275,4.751,4.751,0,0,0-1.9-.411c3.177,2.443,3.493,7.807,2.113,11.748-1.533,4.417-6.809,8.233-10.743,5.988a8.521,8.521,0,0,1-.146,1.291c4.989,1.284,11.381-.66,12.885-6.164.037-.139.073-.293.11-.447C67.177,80,67.236,78.748,67.309,77.251ZM63,74.638a1.144,1.144,0,0,1,.521-.014,7.784,7.784,0,0,0-.624-2.686A8.679,8.679,0,0,0,61.872,73a1.11,1.11,0,0,1-1.563,0,1.129,1.129,0,0,1,0-1.556,9.366,9.366,0,0,1,1.2-1.211,4.331,4.331,0,0,0-2.348-.763,1.264,1.264,0,0,1-.345-.073,8.64,8.64,0,0,0-.983.484,8.853,8.853,0,0,0-1.093.756c.022.037.051.073.073.11.44,1.049,1.159,1.944,1.578,3.016a1.111,1.111,0,0,1-.771,1.357,1.132,1.132,0,0,1-1.357-.77,17.634,17.634,0,0,0-1.138-2.055,9.983,9.983,0,0,0-1.005,1.857c.514.5,1.049.961,1.6,1.416a1.11,1.11,0,0,1,0,1.563,1.129,1.129,0,0,1-1.556,0c-.228-.191-.455-.382-.675-.58a9.847,9.847,0,0,0-.11,1.013,15.4,15.4,0,0,0,.007,2.113c.484-.169.983-.315,1.46-.521a1.129,1.129,0,0,1,1.505.4,1.115,1.115,0,0,1-.4,1.512c-.733.308-1.533.5-2.252.851.066.33.124.6.176.793.029.11.051.2.066.257a4.055,4.055,0,0,0,2.047,1.761c.037-.624.051-1.24.051-1.864a1.1,1.1,0,0,1,2.2,0c0,.594-.015,1.2-.044,1.79a7.42,7.42,0,0,0,2.913-2.12,1.493,1.493,0,0,1-.528-.265c-.345-.271-.9-.638-1.336-.931a1.118,1.118,0,0,1-.4-1.505,1.1,1.1,0,0,1,1.5-.4c.609.4,1.211.822,1.783,1.27a.729.729,0,0,1,.162.176,7.863,7.863,0,0,0,.91-2.253,15.358,15.358,0,0,0,.279-1.842,8.668,8.668,0,0,1-2.128.2,1.1,1.1,0,1,1,0-2.2A6.271,6.271,0,0,0,63,74.638Zm-1.7-16.077a6.267,6.267,0,0,0,.873-.382c-3.852-.888-8.174-.477-12.034-1.13-4.755-.792-9.261-2.157-13.95-3.148l-.088.044c-.264.118-.528.206-.792.308a13.979,13.979,0,0,1-1.563.529c-2.062.594-3.963.946-5.643,1.482-.411.147-.807.3-1.211.448-.381.132-.866.33-1.291.491-.866.331-1.71.6-2.517.859a32.258,32.258,0,0,0-4.3,1.607c-.294.161-.609.3-.881.47s-.536.344-.792.521a16.092,16.092,0,0,0-1.461,1.2l-.066.066a3.056,3.056,0,0,0,.147,1.181c.015.037.037.066.051.095a6.312,6.312,0,0,1,.793-.8,10.182,10.182,0,0,1,1.233-.91,12.73,12.73,0,0,1,1.893-1c.99-.4,1.423-.419,1.482-.286s-.249.41-1.115.976c-.433.286-1,.645-1.688,1.144A9.2,9.2,0,0,0,16.575,64a4.972,4.972,0,0,0,1.254.5c.5.14,1.042.242,1.593.345s1.13.2,1.68.294c.594.117,1.123.249,1.644.381,1.049.264,2.062.5,3.038.712A41.138,41.138,0,0,0,31.3,67.1a10.711,10.711,0,0,0,1.3.066c.433.008.866.022,1.284.03.191,0,.374.007.565.007a48.614,48.614,0,0,1,9.165-5.115,48.126,48.126,0,0,1,7.221-2.436c.931-.205,1.717-.4,2.377-.513s1.2-.169,1.622-.213c.836-.088,1.2-.088,1.21-.008s-.33.213-1.137.433c-.4.1-.917.235-1.563.389-.638.169-1.4.411-2.3.668a58.325,58.325,0,0,0-7.022,2.612c-1.5.661-2.965,1.4-4.389,2.2a21.816,21.816,0,0,0-2.737,2.12c1.387.037,3.7.4,4.976-.022,1.467-.484,2.318-2.2,3.573-3.023a22.518,22.518,0,0,1,4.513-2.2c2.759-1.013,5.423-1.637,7.866-2.363C59.039,59.375,60.221,59,61.307,58.561ZM49.757,70.316c.037-.3.051-.609.059-.924a1.372,1.372,0,0,0-.14-.587c-.081.029-.169.051-.249.08a2.158,2.158,0,0,1-.279.088,5.652,5.652,0,0,1-.793.081c-.227.007-.469-.029-.711-.022-.962.015-2.026-.037-3.185-.022-2.319.015-5.041-.095-8.2-.095H33.936a8.076,8.076,0,0,1-.55,2.979c5.026.925,10.977.22,15.96-.132a.011.011,0,0,1,.015,0C49.522,71.226,49.654,70.742,49.757,70.316ZM47.82,84.794l.007-.125a2.581,2.581,0,0,0-.33-.066,3.292,3.292,0,0,0-.389,0c-.169,0-.338.008-.5.008-1.343.058-2.642.308-3.9.484a18.176,18.176,0,0,1-1.856.169c-.308,0-.609.007-.9.007-.293-.022-.587-.073-.873-.11-.147-.015-.286-.037-.425-.059a2.134,2.134,0,0,1-.463-.124,5.825,5.825,0,0,1-.763-.367c-.1-.059-.2-.125-.3-.191-.088-.029-.176-.066-.271-.1s-.206-.088-.316-.139a35.185,35.185,0,0,1-3.838.33,42.384,42.384,0,0,1-11.432-1.277c-1.02-.242-2.055-.5-3.141-.836a17.726,17.726,0,0,1-3.295-1.336,5.888,5.888,0,0,1-1.673-1.284,5.891,5.891,0,0,1-.381-.543c-.1-.228-.176-.455-.25-.69a7.772,7.772,0,0,1-.124-1.093,16.92,16.92,0,0,1,.2-2.825H12.6a1.02,1.02,0,0,0-.183.132,1.062,1.062,0,0,0-.147.11,2.827,2.827,0,0,0-.352.381,2.439,2.439,0,0,0-.139.206A9.716,9.716,0,0,0,10.91,77.3c-.228.587-.419,1.1-.609,1.5-.015.022-.022.037-.037.059,1.563,2.179,4.087,3.515,6.523,4.5a57.208,57.208,0,0,0,7.573,2.267c2.51.617,4.814,1.226,7.052,1.615,1.123.168,2.216.374,3.287.455.529.051,1.057.124,1.578.154l1.541.066c.249.007.506.022.756.029l.734-.022,1.453-.044c.476-.022.931-.1,1.386-.154s.918-.081,1.336-.184.844-.2,1.255-.3c.212-.044.411-.1.616-.14.184-.073.367-.139.55-.213a3.416,3.416,0,0,0,1.585-1.137,1.183,1.183,0,0,0,.191-.374l.081-.191.029-.22c.015-.1.022-.088.022-.118A.112.112,0,0,0,47.82,84.794Zm-1.4-7.389a15.448,15.448,0,0,0,2.334-3.955c-5.372.4-11.55,1.056-16.782-.162a.83.83,0,0,1-.492-1.211,5.013,5.013,0,0,0,.807-3,4.935,4.935,0,0,1-1.1.088l.213.169a7.772,7.772,0,0,1-5.526,2.862,5.674,5.674,0,0,1-1.24-.059,3.79,3.79,0,0,1-.6-.132c-.1-.029-.2-.066-.3-.095-.1-.052-.205-.1-.3-.147a2.155,2.155,0,0,1-.94-.976,2.673,2.673,0,0,1-.227-.969,7.582,7.582,0,0,1,.059-1.2c.036-.3.066-.543.1-.734a1.352,1.352,0,0,1,.052-.2c-.081-.022-.154-.037-.235-.051-.382-.1-.756-.177-1.123-.257-.015.044-.022.08-.037.125a6.6,6.6,0,0,1-.976,1.687A6.092,6.092,0,0,1,18.893,70.4a3.7,3.7,0,0,1-1.064.558,2.829,2.829,0,0,1-1.555.058,3.413,3.413,0,0,1-.793-.315,2.513,2.513,0,0,1-.748-.7,3.316,3.316,0,0,1-.573-1.761,5.23,5.23,0,0,1,.206-1.769,6.138,6.138,0,0,1,.44-1.034A4.048,4.048,0,0,1,13.779,64.1c-.052.081-.11.169-.162.257a6.651,6.651,0,0,0-.8,4.491c.073.315.124.6.205.873s.161.514.235.741c.1.228.183.433.257.616.183.463.381.786.535,1.116.213.433.389.77.521,1.034a3.942,3.942,0,0,1,1.138-.029c.455.037.924.118,1.4.176s1.05.14,1.637.228c1.2.2,2.59.389,4.16.7l5.225,1.218c1.908.367,4.16.624,6.633,1.152A26.106,26.106,0,0,1,38.677,77.8a11.11,11.11,0,0,1,2.054,1.057l.514.352c.161.139.323.3.484.448a4.7,4.7,0,0,1,.785.968A12.214,12.214,0,0,0,46.425,77.405Zm-6.039,4.05a6.713,6.713,0,0,0-2.531-1.614,22.673,22.673,0,0,0-3.28-.983,3.443,3.443,0,0,0,1.012,2.3A10.124,10.124,0,0,0,36.673,82.2,26.906,26.906,0,0,0,40.386,81.455Zm-7.727,1.02c.455-.007.9-.022,1.336-.036A5.5,5.5,0,0,1,32.7,80.5,4.688,4.688,0,0,1,32.41,78.4c-.873-.161-1.717-.315-2.546-.462.264,1.548.242,3.376,1.262,4.52C31.647,82.468,32.16,82.475,32.659,82.475Zm-3.492-.124a8.571,8.571,0,0,1-.544-1.989.223.223,0,0,1-.1.015c-3.375-.125-7.25-.367-10.4-1.806-.007.514,0,1.02.029,1.534.213.074.418.14.631.206.991.315,2.018.579,3.016.821A41.932,41.932,0,0,0,29.167,82.351Zm-.815-3.633A9.861,9.861,0,0,0,28.1,77.6c-.125-.03-.257-.052-.389-.074l-.778-.2c-.235-.059-.463-.125-.69-.183l-1.328-.367L22.5,76.091c-1.526-.381-2.862-.66-4.014-.946-.08-.022-.154-.037-.234-.059-.008.558-.037,1.123-.059,1.68C21.168,78.373,25.028,78.594,28.352,78.718Zm.33-9.811c-1.093-.146-2.209-.337-3.346-.587-.66-.132-1.328-.293-2-.447a3.852,3.852,0,0,1,.22.645c.088.323.154.7.257,1.057a1.078,1.078,0,0,0,.191.4c.058.088.117.088.249.139a3.947,3.947,0,0,0,1.482.052A6.133,6.133,0,0,0,28.682,68.907ZM20.1,67.183c-.352-.066-.7-.125-1.064-.183-.572-.1-1.167-.213-1.8-.382-.154-.044-.315-.095-.484-.147a3.357,3.357,0,0,0-.44,1.666,1.55,1.55,0,0,0,.146.668.466.466,0,0,0,.1.124,1.923,1.923,0,0,0,.242.125.986.986,0,0,0,.492.037,2.532,2.532,0,0,0,.6-.235,6.424,6.424,0,0,0,1.078-.748C19.444,67.726,19.811,67.41,20.1,67.183Zm-3.5,7.69a.621.621,0,0,1,.037-.169c-.4-.1-.778-.2-1.116-.286a4.336,4.336,0,0,0-.638-.1,17.722,17.722,0,0,0-.279,3.053,5.27,5.27,0,0,0,.066.668.25.25,0,0,1,.044.147l.117.168a3.946,3.946,0,0,0,1.072.793q.274.154.572.286C16.442,77.911,16.589,76.4,16.6,74.873Z"></path><path d="M106.406,57.541c.11.147-.382.719-1.137,1.585a17.143,17.143,0,0,0-2.334,3.764,16.827,16.827,0,0,0-1.071,4.264c-.088,1.174-.14,1.937-.323,1.944-.154,0-.411-.7-.55-1.9a10.529,10.529,0,0,1,3.654-8.689C105.621,57.739,106.311,57.416,106.406,57.541Z"></path><path d="M47.387,59.309c.8.11,1.232.264,1.225.433-.007.36-1.666.6-4.256,1.365-1.3.374-2.832.881-4.615,1.38A23.25,23.25,0,0,1,33.606,63.5c-.294-.014-.594-.022-.888-.029s-.528-.051-.792-.073c-.507-.066-1.013-.125-1.5-.184a20.77,20.77,0,0,1-2.964-.543,8.372,8.372,0,0,1-1.438-.521A3.343,3.343,0,0,1,24.6,60.982a2.039,2.039,0,0,1-.242-.557c-.022-.1-.044-.2-.059-.308a2.136,2.136,0,0,1,.008-.375.629.629,0,0,1,.029-.169,1.411,1.411,0,0,1,.081-.293,1.445,1.445,0,0,1,.147-.323l.146-.2a3.562,3.562,0,0,1,1.145-.859,11.034,11.034,0,0,1,3.287-1.027c.793-.11,1.263-.044,1.292.125s-.345.41-1.013.792a29.434,29.434,0,0,0-2.715,1.6c-.213.154-.565.352-.565.469v.008s.081,0,.081-.008c.022-.014.081,0,.095,0a2.114,2.114,0,0,0,.58.3,7.06,7.06,0,0,0,1.093.294,24.871,24.871,0,0,0,2.686.352c.492.051,1,.095,1.5.147.25.014.529.058.756.058s.448.015.675.015a28.71,28.71,0,0,0,5.592-.748c1.761-.367,3.4-.712,4.806-.881A15.011,15.011,0,0,1,47.387,59.309ZM25.82,59.39v-.015h-.007C25.8,59.375,25.806,59.383,25.82,59.39Z"></path></g></svg>