<svg xmlns="http://www.w3.org/2000/svg" data-name="Layer 1" viewBox="0 0 5 5" x="0px" y="0px"><title>auto_car_speed_machine_automobile</title><path d="M.80153,2.19411a.293.293,0,0,0-.15726.12529.36446.36446,0,0,0-.04141.09451.15282.15282,0,0,0,.00129.107.0207.0207,0,0,0,.03779-.00034.4653.4653,0,0,0,.02264-.08714A.34222.34222,0,0,1,.697,2.35338a.41372.41372,0,0,1,.11988-.13286C.83179,2.20966.81733,2.18919.80153,2.19411Z"></path><path d="M.61042,3.02229A.21386.21386,0,0,1,.596,2.9669a.86065.86065,0,0,1,.00033-.1201c-.00015-.047-.00078-.09431-.00307-.14129a.587.587,0,0,0-.01373-.139.01128.01128,0,0,0-.02072.00019A.57155.57155,0,0,0,.545,2.71228c-.00179.04908-.00111.09852.00007.14761a.76727.76727,0,0,0,.0144.1223.31748.31748,0,0,0,.01628.05723c.00626.01588.01578.04144.034.04605a.0163.0163,0,0,0,.02187-.01306C.63269,3.05409.61752,3.0386.61042,3.02229Z"></path><path d="M2.15673,2.7436a.11906.11906,0,0,0-.13961.06538,1.052,1.052,0,0,1-.08382.16511.29388.29388,0,0,1-.14033.08174.62259.62259,0,0,1-.19475.0212c-.071-.00164-.142-.00766-.21291-.01218s-.14209-.00876-.2131-.01362L1.06571,3.0439a.56317.56317,0,0,1-.08186-.00957.1799.1799,0,0,1-.12257-.08149c-.03063-.0527-.0386-.11542-.06549-.16974a.1792.1792,0,0,0-.1209-.10772A.01.01,0,0,0,.67,2.69454.15445.15445,0,0,1,.759,2.8108a.92523.92523,0,0,0,.04163.16152.1925.1925,0,0,0,.12766.105.879.879,0,0,0,.17851.02c.1427.00814.28529.01839.428.02613a.53418.53418,0,0,0,.36246-.07415.35544.35544,0,0,0,.06627-.06442.40209.40209,0,0,0,.04727-.08725c.02421-.05507.06631-.12727.13744-.12031A.01763.01763,0,0,0,2.15673,2.7436Z"></path><path d="M1.84663,2.77418c-.05984.00251-.11957.00024-.17944.00176-.05961.00151-.11919.004-.17877.0065-.118.00487-.236.00985-.35377.01742-.0677.00435-.1352.00822-.20232.0184a.01055.01055,0,0,0,.00023.02084c.11811.00906.2375.00294.35581.00038q.18049-.00391.3609-.01156c.06785-.00291.13527-.01037.20314-.01255C1.87908,2.81453,1.87327,2.77307,1.84663,2.77418Z"></path><path d="M3.3609,1.94863A2.99444,2.99444,0,0,0,2.335,2.1059a2.64565,2.64565,0,0,0-.27077.11168.00929.00929,0,0,0,.00716.01714c.08085-.02962.16376-.05481.24633-.07918s.16523-.04833.249-.06854a3.94008,3.94008,0,0,1,.5056-.08566c.09593-.01026.19255-.01718.28893-.02139A.01586.01586,0,0,0,3.3609,1.94863Z"></path><path d="M3.55071,1.59531a2.84725,2.84725,0,0,0-.34026-.01037,2.54249,2.54249,0,0,0-.34205.02944c-.11251.01849-.22461.04292-.33495.07163a2.06506,2.06506,0,0,0-.32486.11519c-.0591.02645-.11663.05612-.17478.08458-.027.01321-.05433.02567-.08168.03809q-.1385.01407-.27653.03228a2.98917,2.98917,0,0,0-.41067.07971,1.28752,1.28752,0,0,0-.41532.19941c-.00941.00691.0015.02085.011.0143a1.17414,1.17414,0,0,1,.37458-.16119A3.1749,3.1749,0,0,1,1.6408,2.0157q.10616-.01321.21249-.02452l.00574.00058.01987-.00332q.35456-.03711.71081-.05442c.18033-.00891.36064-.01868.541-.027.01505-.0007.01484-.02574-.00029-.02649-.16191-.00794-.32418-.0114-.48621-.00545-.16226.006-.32435.01628-.48615.02979l-.04681.004.0723-.03042c.105-.04454.21027-.087.31756-.1259a2.113,2.113,0,0,1,.32455-.09,3.21818,3.21818,0,0,1,.33683-.04717,2.49579,2.49579,0,0,1,.38585,0C3.56124,1.61632,3.56373,1.59651,3.55071,1.59531Z"></path><path d="M3.59631,1.67128A.01864.01864,0,0,0,3.56079,1.667c-.01571.04336-.02278.08895-.03752.13268-.00706.02093-.01483.04169-.02266.06234-.00656.01729-.01619.04318-.03956.0318a.00756.00756,0,0,0-.00731.013.05892.05892,0,0,0,.062-.00031.12243.12243,0,0,0,.04483-.06089A.34073.34073,0,0,0,3.59631,1.67128Z"></path><path d="M4.07247,1.846a.21322.21322,0,0,0-.12074-.04108.02188.02188,0,0,0-.008-.025,1.60716,1.60716,0,0,0-.1422-.08123l-.07-.0389c-.02536-.014-.05171-.0256-.0765-.04065-.01024-.00621-.02169.0086-.01135.015.02459.01532.047.03328.07067.04988.02194.01537.04436.03009.06653.04512.0347.02353.069.049.10477.07139a.44056.44056,0,0,0-.06492.00455.29178.29178,0,0,0-.1135.03959.147.147,0,0,0-.04087.03631.0983.0983,0,0,0-.01436.0224.18221.18221,0,0,1-.01054.02668c-.00544.00981.011.01889.01722.00967a.14678.14678,0,0,1,.03852-.03156A.31839.31839,0,0,1,3.73737,1.882a.26231.26231,0,0,1,.1018-.024.50938.50938,0,0,1,.111.00507.54956.54956,0,0,0,.11275.01961C4.083,1.88162,4.08368,1.85693,4.07247,1.846Z"></path><path d="M4.06569,1.93485c-.05792.012-.11223.03426-.17133.04178a.62735.62735,0,0,1-.08589.0052c-.01533-.00018-.03067-.0011-.04595-.0024a.26619.26619,0,0,1-.04832-.00367c-.01238-.00349-.02.01525-.00744.01878.01552.00437.02912.01329.04477.01755a.43616.43616,0,0,0,.04675.01007.42319.42319,0,0,0,.09756.00391A.31.31,0,0,0,4.078,1.96422C4.08937,1.95417,4.083,1.93128,4.06569,1.93485Z"></path><path d="M3.02666,3.152a2.00573,2.00573,0,0,1-.21087.03937,1.97211,1.97211,0,0,1-.21122.01153c-.1438.00053-.28729-.01066-.4306-.02123-.29783-.022-.59574-.04276-.89363-.06406-.08363-.006-.16729-.012-.251-.01666S.86177,3.09091.77776,3.0927C.765,3.093.76654,3.11211.778,3.11408c.14834.02547.30009.03333.45.04536l.17036.01338a.36933.36933,0,0,1-.06811.04249.28926.28926,0,0,1-.10555.02486.37287.37287,0,0,1-.23713-.084C.97748,3.14855.9671,3.16135.97289,3.171a.28547.28547,0,0,0,.19315.12634.33081.33081,0,0,0,.22672-.04224.20771.20771,0,0,0,.08212-.07635l.20429.01587q.224.01769.44815.03407c.1439.01076.28792.02289.43228.02454a2.23731,2.23731,0,0,0,.23954-.00883,1.19938,1.19938,0,0,0,.24111-.0427C3.06822,3.193,3.05541,3.14566,3.02666,3.152Z"></path><path d="M4.15148,2.90658a.67848.67848,0,0,0-.14435.03443c-.04675.01478-.09325.03029-.1398.04567-.04551.015-.09087.03044-.13571.04738-.03148.01189-.064.023-.09494.03693l.00548-.0261A1.01333,1.01333,0,0,0,3.629,2.58612c-.00781-.02918-.05287-.025-.04791.00671a1.26666,1.26666,0,0,1,.00435.37306,1.10754,1.10754,0,0,1-.04015.17907.34923.34923,0,0,1-.07578.15253.08484.08484,0,0,1-.11525.00982.19586.19586,0,0,1-.05037-.11243,1.53361,1.53361,0,0,1-.02259-.37522c.00328-.05194.00876-.1038.01656-.15529l.00571-.02468q.0157-.06744.03186-.13477c.01037-.04317.01887-.08728.03228-.12964.01809-.05715.064-.13424.13624-.115.08783.02339.10776.14166.10828.21783.00008.01214.01907.01455.019.00224a.73652.73652,0,0,0-.00408-.13628.19073.19073,0,0,0-.05866-.10691.1395.1395,0,0,0-.10805-.03683.16671.16671,0,0,0-.10637.06473.32133.32133,0,0,0-.05426.12711c-.01166.04727-.02138.095-.03181.14259-.022.10027-.04726.2-.06776.30054-.02338.11468-.03723.23081-.06.34552-.002.01017.01519.01475.01786.00451.02247-.0861.05009-.17047.07441-.256a1.44352,1.44352,0,0,0,.01416.26935.30828.30828,0,0,0,.05408.14331l.01553.01683a.30658.30658,0,0,1-.03612-.001.3673.3673,0,0,1-.07871-.01618.20038.20038,0,0,1-.07914-.03876c-.00911-.009-.02522.00319-.016.01232.01143.01133.02047.02444.03251.03534a.27582.27582,0,0,0,.03861.02945.25.25,0,0,0,.094.033A.277.277,0,0,0,3.428,3.39257a.15239.15239,0,0,0,.03156-.00832.239.239,0,0,0,.12593-.14456,1.00208,1.00208,0,0,0,.03847-.11641,1.02579,1.02579,0,0,0,.12693-.03069c.04805-.01286.09564-.02723.1431-.04209.04583-.01435.09171-.02853.13735-.04346a.68321.68321,0,0,0,.13816-.05756C4.19181,2.93625,4.173,2.90473,4.15148,2.90658Z"></path><path d="M3.45741,2.51292c-.00522-.01269-.02354-.00459-.01939.0081a.83972.83972,0,0,1,.01066.4207.01845.01845,0,0,0,.03532.00892A.61883.61883,0,0,0,3.45741,2.51292Z"></path><path d="M4.31412,2.36771a.1682.1682,0,0,0-.02676.02168.12745.12745,0,0,0-.01892.03135.22331.22331,0,0,0-.01893.06522.8377.8377,0,0,0-.00429.14171.36386.36386,0,0,1-.04935.23632c-.00682.0091.00474.01934.01365.01352a.274.274,0,0,0,.09531-.22678c.0013-.04571-.00035-.09162.0042-.13718a.691.691,0,0,1,.01136-.0696c.00228-.01114.00645-.02173.00878-.03284.00238-.01138.00178-.01694.00489-.02838A.01307.01307,0,0,0,4.31412,2.36771Z"></path><path d="M4.45409,2.67428a.59187.59187,0,0,0-.04931-.21234.017.017,0,0,0-.03229.00884,1.28672,1.28672,0,0,1,.02625.33441.46178.46178,0,0,1-.0297.13278l-.00077-.00663c-.00188-.01765-.00312-.03533-.00422-.053-.00218-.03493-.00327-.06966-.00281-.10465.00046-.03454.00279-.06913.00567-.10355.00148-.01765.00366-.03518.00581-.05275a.36707.36707,0,0,1,.00854-.05843c.00347-.01186-.01452-.01915-.018-.00714-.00521.01782-.01364.03466-.01995.05213-.006.01647-.0107.03346-.01528.05036a.80876.80876,0,0,0-.02154.11.83135.83135,0,0,0-.00615.10888c.00009.01851.0011.037.00251.05548a.14922.14922,0,0,0,.00991.06018.03862.03862,0,0,0,.01443.01526.14625.14625,0,0,1-.06147.03824.1354.1354,0,0,1-.06467.00344.09815.09815,0,0,1-.06164-.03022c-.00625-.00879-.02184-.00017-.01663.00965a.152.152,0,0,0,.04125.056.12883.12883,0,0,0,.07212.02389.18725.18725,0,0,0,.14514-.072.34326.34326,0,0,0,.0646-.16509A.8706.8706,0,0,0,4.45409,2.67428Z"></path><path d="M4.42277,2.41425a.63809.63809,0,0,0-.09862-.20637.9535.9535,0,0,0-.15451-.167c-.0083-.00737-.02166.00586-.0139.014a1.5298,1.5298,0,0,1,.23344.36857C4.39759,2.43988,4.428,2.43486,4.42277,2.41425Z"></path><path d="M3.801,2.64269c-.0133-.12314-.047-.24267-.06543-.36494-.0054-.0358-.01-.07173-.01519-.10755l-.007-.0506a.36632.36632,0,0,1-.00794-.05982c.00019-.0127-.0196-.01519-.0198-.00233-.00023.015-.00355.02969-.00452.04467a.45.45,0,0,0-.00085.04637.66866.66866,0,0,0,.00965.093c.01127.06262.02706.1246.0407.18674a1.28172,1.28172,0,0,1,.04044.351.77.77,0,0,1-.03867.19177.01364.01364,0,0,0,.02534.01A.58233.58233,0,0,0,3.801,2.64269Z"></path><path d="M4.1935,2.17166a.07063.07063,0,0,0-.05045-.02559.48576.48576,0,0,0-.05287-.00725.83886.83886,0,0,0-.10889-.00167.62977.62977,0,0,0-.10278.01215.40806.40806,0,0,0-.05123.01389c-.01761.00616-.03362.01531-.05083.02214a.00987.00987,0,0,0,.00515.01881c.01655-.00194.03388-.00073.05055-.00122l.05054-.00242c.03409-.00178.06808-.00307.10222-.00218.03362.00087.06691.00419.10026.00834.032.004.0751.01936.10382-.0005A.02516.02516,0,0,0,4.1935,2.17166Z"></path><path d="M1.83375,2.26352C1.81807,2.258,1.803,2.2511,1.78688,2.24706A.46981.46981,0,0,0,1.734,2.2377c-.0329-.00432-.06588-.00783-.099-.01025-.06772-.005-.1357-.0065-.20358-.00474a1.99882,1.99882,0,0,0-.39994.05105.85634.85634,0,0,0-.2149.07345c-.00942.00509-.00671.02085.00522.01906.06521-.00977.12883-.02735.1934-.04044.06409-.013.12841-.024.19341-.03139a2.07642,2.07642,0,0,1,.39292-.00794q.054.00413.10773.01077c.0184.00226.03672.00514.05517.00694.01975.00192.03907.00026.05881.00062C1.846,2.30524,1.85844,2.2722,1.83375,2.26352Z"></path><path d="M1.886,2.37166c-.00193-.02154-.03212-.01879-.03589.00039a.21.21,0,0,1-.12742.14068.916.916,0,0,1-.227.06276q-.03224.00571-.06457.00995a.01891.01891,0,0,0,.00918-.01249.41409.41409,0,0,0-.00375-.11212.681.681,0,0,0-.01557-.11208.01083.01083,0,0,0-.02138.00023.688.688,0,0,0-.003.11435.41863.41863,0,0,0,.00951.1144.01432.01432,0,0,0,.0085.00976q-.04488.00542-.08987.00827l.00263-.00822a.52757.52757,0,0,0-.0076-.11006A.697.697,0,0,0,1.301,2.37057c-.0032-.01055-.01927-.0071-.02039.00286a.67943.67943,0,0,0,.00126.10621.52463.52463,0,0,0,.012.10827l.00593.00924c-.04878.00238-.09763.00269-.14651.00119l.0001-.00572c-.00826-.034-.02158-.06654-.03041-.10048a.38293.38293,0,0,1-.01137-.10726c.00038-.0133-.01988-.01614-.02087-.00246a.59147.59147,0,0,0,.00316.11379.25581.25581,0,0,0,.03109.10106l-.0512-.00288a.1936.1936,0,0,0-.0201-.04232.40135.40135,0,0,1-.01977-.04863.4863.4863,0,0,1-.02168-.1068.01014.01014,0,0,0-.02.00022.35212.35212,0,0,0,.009.11554.43876.43876,0,0,0,.01718.05441l.01.02405-.02619-.00243A.30572.30572,0,0,1,.886,2.55923.09446.09446,0,0,1,.8306,2.46671c.002-.01136-.0169-.01651-.01995-.005a.12336.12336,0,0,0,.01727.10443.17773.17773,0,0,0,.09634.06926.93569.93569,0,0,0,.27334.0372,1.58253,1.58253,0,0,0,.28166-.01919q.0697-.01111.13822-.02841a.65121.65121,0,0,0,.12334-.04073A.22679.22679,0,0,0,1.886,2.37166Z"></path><path d="M1.23357,2.57294a.99538.99538,0,0,1-.02689-.23131.01065.01065,0,0,0-.02114-.00249.47188.47188,0,0,0-.01016.12238.508.508,0,0,0,.00592.05913.27974.27974,0,0,0,.01921.06135C1.20774,2.59979,1.23762,2.59253,1.23357,2.57294Z"></path><path d="M1.54522,2.44579a.49277.49277,0,0,0-.01393-.09012c-.00322-.01108-.01871-.00656-.02039.00286a.5056.5056,0,0,0-.00375.09376.27221.27221,0,0,0,.00818.09135c.00639.01759.02872.01026.03234-.00453A.283.283,0,0,0,1.54522,2.44579Z"></path><path d="M1.63679,2.431a.35679.35679,0,0,1,.00177-.0369c.00111-.01282.00041-.02622.00264-.03883s-.01512-.015-.02021-.0051a.19267.19267,0,0,0-.01811.03973.219.219,0,0,0-.00684.04155.11752.11752,0,0,0,.01507.08206.01683.01683,0,0,0,.02966-.00818A.32647.32647,0,0,0,1.63679,2.431Z"></path><path d="M1.72569,2.3867c-.00229-.01106-.01913-.015-.0233-.00279a.24171.24171,0,0,0-.00789.07466c-.00037.0187.02747.02288.02949.00347A.2451.2451,0,0,0,1.72569,2.3867Z"></path><path d="M3.05219,2.19346a.94467.94467,0,0,1-.32843.19736,1.38012,1.38012,0,0,1-.43317.06284c-.04472.0009-.08947.00141-.13419.00267l-.06366.00234a.64012.64012,0,0,0-.06879.008c-.01022.00144-.01391.01858-.00257.02148.01888.00482.03742.01108.05668.01438.02109.00361.04255.00583.06377.0086.04049.00529.08124.00805.122.00994a1.51162,1.51162,0,0,0,.25022-.009A.95068.95068,0,0,0,2.914,2.38a.5344.5344,0,0,0,.1635-.16152C3.08739,2.20267,3.06818,2.17872,3.05219,2.19346Z"></path><path d="M3.022,2.13175a.58382.58382,0,0,0-.20465-.02256,1.292,1.292,0,0,0-.19622.021,1.1802,1.1802,0,0,0-.37921.13921,1.013,1.013,0,0,0-.09512.06228c-.01533.01138-.03015.02317-.04439.0359s-.02668.02808-.04159.03973a.01.01,0,0,0,.01215.0158A.32875.32875,0,0,1,2.11478,2.399l.04463-.02513c.02764-.01571.05592-.0305.08436-.04471A1.46727,1.46727,0,0,1,2.4233,2.254a1.38936,1.38936,0,0,1,.37762-.07592c.07206-.00378.14432.001.21615-.00482A.02177.02177,0,0,0,3.022,2.13175Z"></path><path d="M2.90679,3.06615a.53065.53065,0,0,0-.02093-.08567.50418.50418,0,0,0-.03715-.07679.42437.42437,0,0,0-.101-.12222.2934.2934,0,0,0-.14956-.062.59312.59312,0,0,0-.1621.00785c-.02988.005-.05974.00979-.0898.01354-.01435.00179-.02867.00356-.0431.00465a.21587.21587,0,0,1-.05038.002c-.01248-.00212-.01477.0174-.0023.01953s.02466.00724.037.01009a.31768.31768,0,0,0,.03758.00584.702.702,0,0,0,.07616.00279,1.50321,1.50321,0,0,1,.15148.00181.26839.26839,0,0,1,.12687.04318.29.29,0,0,1,.03892.03287l.00521.011a.13615.13615,0,0,1,.01488.0725c-.00531.04591-.04664.06814-.08733.07876a1.10687,1.10687,0,0,1-.168.02459,1.35659,1.35659,0,0,1-.1918.00634.01092.01092,0,0,0-.00256.02168,1.48022,1.48022,0,0,0,.3309.00458A.25809.25809,0,0,0,2.742,3.04384a.12675.12675,0,0,0,.04934-.07648l.01926.03833a.90234.90234,0,0,0,.04847.08049A.027.027,0,0,0,2.90679,3.06615Z"></path><path d="M4.20778,2.488a.58453.58453,0,0,1-.19366.05688c-.0148.00142-.0114.02365.00318.02269a.45041.45041,0,0,0,.202-.05968C4.23062,2.50117,4.21953,2.48245,4.20778,2.488Z"></path><path d="M1.7322,2.14869c-.09685.00313-.19346.008-.29019.01372-.0965.00573-.19283.0144-.2893.02007-.01112.00065-.00858.01757.00239.01705.0968-.00456.19378-.00613.29062-.01063s.19319-.00987.28973-.017C1.75072,2.17079,1.747,2.14821,1.7322,2.14869Z"></path></svg>