<svg xmlns="http://www.w3.org/2000/svg" xmlns:xlink="http://www.w3.org/1999/xlink" version="1.1" x="0px" y="0px" viewBox="0 0 100 100" enable-background="new 0 0 100 100" xml:space="preserve"><g><path d="M95.25,69.88l-0.18-20.63c0-0.007-0.007-0.01-0.007-0.017c0-0.006,0.005-0.01,0.004-0.016l-0.225-1.572   c-0.004-0.027-0.027-0.041-0.038-0.064c-0.012-0.026-0.011-0.056-0.032-0.078l-1.078-1.078c-0.002-0.002-0.006-0.001-0.009-0.004   c-0.002-0.002-0.001-0.005-0.004-0.008l-1.438-1.257c-0.004-0.003-0.01-0.002-0.014-0.005c-0.004-0.004-0.004-0.01-0.009-0.013   l-1.437-0.988c-0.002-0.001-0.005,0-0.007-0.001c-0.002-0.001-0.002-0.004-0.004-0.005l-1.168-0.718   c-0.01-0.006-0.022-0.001-0.033-0.005c-0.011-0.005-0.014-0.018-0.026-0.021l-1.17-0.351v-0.353c0-0.002-0.002-0.003-0.002-0.005   c0-0.002,0.002-0.004,0.002-0.006l-0.09-1.953c0-0.004-0.004-0.006-0.005-0.01c0-0.004,0.003-0.007,0.003-0.01l-0.27-2.065   c-0.001-0.006-0.008-0.009-0.009-0.016c-0.001-0.006,0.004-0.012,0.002-0.018l-0.356-1.291l-0.223-1.202   c-0.004-0.02-0.022-0.029-0.03-0.047c-0.007-0.017,0-0.036-0.011-0.052l-0.146-0.208c-0.005-0.012-0.014-0.019-0.021-0.03   l-0.43-0.613l-0.102-0.676l0.168-0.105l2.409-0.175c0,0,0,0,0.001,0c0.001,0,0.002,0,0.003,0l2.021-0.18c0,0,0,0,0,0   c0.002,0,0.003,0,0.004,0l2.065-0.224c0.07-0.008,0.129-0.044,0.169-0.096c0.001-0.001,0.002,0,0.002-0.001l0.584-0.764   c0.014-0.019,0.009-0.042,0.017-0.063c0.01-0.025,0.032-0.043,0.034-0.071l0.135-1.931c0-0.005-0.004-0.008-0.004-0.012   c0-0.005,0.005-0.008,0.005-0.013l-0.09-2.918c0-0.013-0.013-0.02-0.015-0.032c-0.002-0.013,0.007-0.026,0.003-0.039L93.8,26.656   c-0.002-0.006-0.01-0.008-0.012-0.014c-0.013-0.031-0.038-0.048-0.062-0.071c-0.023-0.023-0.039-0.048-0.069-0.06   c-0.006-0.003-0.008-0.011-0.015-0.013l-1.213-0.404c-0.012-0.004-0.023,0.005-0.035,0.003c-0.012-0.003-0.02-0.015-0.033-0.015   l-3.099-0.134c-0.005,0-0.008,0.005-0.013,0.005c-0.006,0-0.008-0.005-0.015-0.005l-1.348,0.089   c-0.021,0.001-0.033,0.02-0.053,0.026c-0.02,0.006-0.041-0.002-0.06,0.009l-0.449,0.27c-0.005,0.003-0.005,0.01-0.009,0.013   c-0.026,0.018-0.036,0.046-0.053,0.072c-0.019,0.029-0.042,0.051-0.048,0.085c-0.001,0.005-0.007,0.008-0.008,0.014l-0.341,2.772   l-0.537,0.215c-0.014,0.005-0.017,0.021-0.029,0.028c-0.03,0.018-0.048,0.038-0.069,0.067c-0.02,0.027-0.032,0.05-0.04,0.083   c-0.004,0.015-0.019,0.025-0.02,0.041L86.047,32.3l-0.023,0.002c-0.001-0.002-0.002-0.005-0.003-0.007l-0.301-1.092   c-0.001-0.002-0.003-0.002-0.003-0.004c0-0.001,0.001-0.003,0-0.004l-1.168-3.727c-0.001-0.003-0.005-0.004-0.006-0.007   c-0.001-0.003,0.001-0.006,0-0.01l-1.751-4.445c-0.001-0.003-0.004-0.003-0.006-0.006c-0.001-0.002,0.001-0.005,0-0.007   l-2.471-5.343c-0.005-0.012-0.019-0.014-0.026-0.024c-0.007-0.011-0.003-0.025-0.012-0.036l-2.044-2.335   c-0.003-0.004-0.009-0.003-0.012-0.006c-0.003-0.003-0.002-0.009-0.005-0.012l-2.155-2.021c-0.024-0.023-0.057-0.021-0.087-0.033   c-0.026-0.01-0.044-0.033-0.074-0.034l-2.021-0.09c-0.028-0.001-0.048,0.019-0.073,0.027c-0.026,0.007-0.053,0-0.076,0.015   l-0.604,0.403l-0.68-0.04l-3.853-0.224h0l-4.672-0.449c-0.002,0-0.003,0.002-0.005,0.002c-0.002,0-0.003-0.002-0.004-0.002   l-4.071-0.22c-0.001,0-0.002,0.001-0.003,0.001c-0.001,0-0.002-0.002-0.003-0.002l-9.685-0.281   c-0.066-0.003-0.112,0.025-0.153,0.055c-0.041-0.027-0.083-0.053-0.14-0.055l-9.685,0.281c-0.001,0-0.002,0.001-0.003,0.001   c-0.001,0-0.002-0.001-0.003-0.001l-4.071,0.22c-0.002,0-0.003,0.002-0.005,0.002c-0.002,0-0.003-0.002-0.006-0.002l-4.671,0.449   c0,0,0,0,0,0l-3.853,0.224l-0.68,0.04l-0.604-0.403c-0.024-0.016-0.053-0.009-0.079-0.016c-0.025-0.007-0.043-0.027-0.071-0.026   l-2.021,0.09c-0.031,0.001-0.052,0.025-0.079,0.037c-0.027,0.011-0.058,0.009-0.081,0.03l-2.156,2.021   c-0.004,0.003-0.002,0.009-0.006,0.012c-0.003,0.003-0.008,0.002-0.011,0.006l-2.043,2.335c-0.009,0.01-0.005,0.024-0.012,0.034   c-0.007,0.011-0.022,0.013-0.027,0.025l-2.47,5.343c-0.001,0.003,0.001,0.005,0,0.008c-0.001,0.002-0.004,0.003-0.005,0.005   l-1.752,4.445c-0.001,0.003,0.001,0.006,0,0.009c-0.001,0.003-0.005,0.004-0.007,0.008l-1.168,3.727c0,0.002,0.001,0.003,0,0.005   s-0.002,0.002-0.003,0.004l-0.301,1.091c-0.002,0.002-0.002,0.005-0.003,0.008L13.953,32.3l-0.124-2.569   c-0.001-0.017-0.016-0.028-0.019-0.045c-0.007-0.027-0.016-0.047-0.031-0.071c-0.021-0.036-0.046-0.059-0.082-0.08   c-0.011-0.006-0.013-0.02-0.025-0.025l-0.537-0.215l-0.341-2.772c-0.001-0.006-0.007-0.008-0.008-0.014   c-0.005-0.03-0.026-0.049-0.042-0.075c-0.019-0.031-0.032-0.063-0.061-0.083c-0.004-0.003-0.004-0.009-0.009-0.012l-0.449-0.27   c-0.018-0.011-0.039-0.003-0.058-0.009c-0.02-0.006-0.032-0.025-0.054-0.027l-1.348-0.089c-0.005,0-0.008,0.005-0.013,0.004   c-0.005,0-0.009-0.006-0.014-0.005l-3.099,0.134c-0.013,0.001-0.02,0.013-0.033,0.015c-0.012,0.002-0.023-0.007-0.036-0.003   l-1.212,0.404c-0.007,0.002-0.009,0.01-0.015,0.013c-0.028,0.012-0.044,0.036-0.066,0.058c-0.025,0.024-0.051,0.042-0.064,0.073   c-0.003,0.006-0.01,0.008-0.012,0.014l-0.404,1.212C5.792,27.879,5.8,27.89,5.798,27.901c-0.003,0.014-0.015,0.023-0.015,0.038   l-0.09,2.918c0,0.005,0.005,0.008,0.005,0.013c0,0.005-0.005,0.008-0.004,0.013l0.135,1.931c0.002,0.028,0.024,0.046,0.034,0.071   c0.008,0.021,0.003,0.044,0.017,0.063l0.584,0.764c0.001,0.001,0.002,0,0.003,0.001c0.04,0.051,0.099,0.088,0.169,0.095   l2.066,0.224c0.001,0,0.003,0,0.004,0c0,0,0,0,0,0l2.021,0.18c0.001,0,0.002,0,0.003,0c0,0,0,0,0.001,0l2.409,0.175l0.167,0.105   l-0.102,0.678l-0.429,0.613c-0.007,0.011-0.016,0.017-0.02,0.029l-0.146,0.208c-0.011,0.016-0.005,0.035-0.012,0.053   c-0.007,0.017-0.026,0.026-0.029,0.046l-0.222,1.196l-0.358,1.297c-0.002,0.006,0.003,0.012,0.002,0.018   c-0.001,0.006-0.008,0.009-0.009,0.016l-0.27,2.065c-0.001,0.004,0.003,0.007,0.003,0.011c0,0.004-0.004,0.006-0.004,0.009   l-0.09,1.953c0,0.002,0.002,0.003,0.002,0.006c0,0.002-0.003,0.004-0.003,0.006v0.353L10.453,43.4   c-0.011,0.003-0.015,0.016-0.026,0.021c-0.011,0.005-0.023-0.001-0.033,0.005l-1.167,0.718c-0.002,0.001-0.002,0.004-0.004,0.005   c-0.002,0.001-0.005,0-0.007,0.001l-1.438,0.988c-0.005,0.003-0.004,0.01-0.009,0.013c-0.004,0.003-0.01,0.001-0.014,0.005   l-1.437,1.257c-0.002,0.002-0.002,0.006-0.004,0.008c-0.002,0.002-0.006,0.001-0.008,0.003l-1.078,1.078   c-0.02,0.02-0.018,0.048-0.03,0.072c-0.013,0.025-0.037,0.041-0.041,0.07l-0.225,1.572c-0.001,0.006,0.005,0.011,0.004,0.017   c0,0.006-0.007,0.01-0.007,0.016L4.75,69.88c0,0.001,0.001,0.001,0.001,0.002c0,0.001-0.001,0.002-0.001,0.003l0.09,8.912   c0,0.004,0.004,0.006,0.004,0.01c0,0.004-0.004,0.007-0.003,0.011l0.27,2.874c0,0,0,0,0,0.001l0.179,2.329   c0,0.004,0.004,0.006,0.005,0.01c0,0.004-0.003,0.007-0.002,0.01l0.27,1.662c0,0.001,0.002,0.002,0.002,0.003   c0,0.001-0.001,0.002-0.001,0.004l0.314,1.661c0.006,0.03,0.028,0.048,0.043,0.073c0.012,0.02,0.017,0.04,0.033,0.056   c0.034,0.032,0.075,0.048,0.121,0.057c0.014,0.003,0.022,0.016,0.036,0.017l2.83,0.135c0.004,0,0.008,0,0.012,0h4.357   c0.005,0,0.01,0,0.015,0l3.009-0.18c0.007,0,0.01-0.007,0.016-0.008c0.051-0.007,0.095-0.03,0.134-0.065   c0.01-0.009,0.019-0.015,0.027-0.026c0.006-0.008,0.016-0.011,0.021-0.02l0.854-1.393c0.003-0.005,0-0.01,0.002-0.015   c0.003-0.006,0.01-0.009,0.013-0.015l0.673-1.526c0.008-0.017-0.002-0.034,0.001-0.052c0.004-0.018,0.02-0.03,0.02-0.049v-1.835   l0.084-3.3l31.801,0.357c0.001,0,0.002,0,0.003,0c0.006,0,0.01-0.006,0.017-0.007c0.006,0,0.01,0.007,0.017,0.007   c0.001,0,0.002,0,0.003,0l31.801-0.357l0.084,3.3v1.835c0,0.019,0.016,0.031,0.02,0.049c0.004,0.018-0.006,0.035,0.001,0.052   l0.674,1.526c0.003,0.007,0.01,0.009,0.013,0.016c0.003,0.005,0,0.01,0.002,0.015l0.854,1.393c0.005,0.009,0.015,0.012,0.021,0.02   c0.008,0.011,0.017,0.017,0.027,0.026c0.039,0.036,0.083,0.059,0.134,0.065c0.006,0.001,0.01,0.007,0.016,0.008l3.009,0.18   c0.005,0,0.01,0,0.015,0h4.357c0.004,0,0.008,0,0.012,0l2.829-0.135c0.015-0.001,0.023-0.014,0.037-0.017   c0.046-0.01,0.087-0.025,0.12-0.057c0.016-0.016,0.021-0.035,0.033-0.055c0.015-0.025,0.038-0.044,0.044-0.074l0.314-1.661   c0-0.001-0.001-0.002-0.001-0.004c0-0.001,0.002-0.002,0.002-0.003l0.27-1.662c0.001-0.004-0.003-0.007-0.003-0.011   c0-0.004,0.004-0.006,0.005-0.009l0.179-2.329c0,0,0,0,0-0.001l0.27-2.874c0-0.004-0.003-0.007-0.003-0.011   c0-0.004,0.004-0.006,0.004-0.01l0.09-8.912c0-0.001-0.001-0.002-0.001-0.003C95.249,69.881,95.25,69.881,95.25,69.88z    M73.938,13.563l0.085,0.004l-0.047,1.278l-0.344-0.878l-0.014-0.038c0-0.001-0.001-0.001-0.001-0.001l-0.001-0.002   c-0.007-0.017-0.026-0.022-0.036-0.037c-0.014-0.021-0.031-0.038-0.05-0.053L73.938,13.563z M26.848,14.021   c0-0.005,0-0.009,0-0.014l0.737-0.043l3.863-0.225c0,0,0,0,0,0c0.003,0,0.006,0,0.009,0l4.671-0.449c0,0,0,0,0,0l4.051-0.219   c0.001,0,0.002,0,0.003,0l9.685-0.281c0.052-0.001,0.093-0.031,0.132-0.059c0.039,0.029,0.08,0.058,0.133,0.059l9.685,0.281   c0.001,0,0.001,0,0.002,0l4.052,0.219c0,0,0,0,0,0l4.672,0.449c0.003,0,0.006,0,0.008,0c0,0,0,0,0,0l3.862,0.225l0.738,0.043   c-0.002,0.033-0.016,0.065-0.004,0.098l0.693,1.848L50.009,15.06c-0.003,0-0.006,0.003-0.009,0.003   c-0.003,0-0.005-0.003-0.008-0.003l-23.834,0.893l0.685-1.826l0.007-0.019c0,0,0-0.001,0-0.001l0.001-0.003   C26.861,14.077,26.848,14.05,26.848,14.021z M26.062,13.563l0.408,0.272c-0.033,0.026-0.07,0.048-0.086,0.09l-0.359,0.918   l-0.047-1.277L26.062,13.563z M25.527,16.539c0.019,0.028,0.039,0.045,0.067,0.063c0.015,0.01,0.021,0.03,0.039,0.036   c0.029,0.011,0.059,0.016,0.088,0.016c0.06,0,0.113-0.027,0.158-0.065c0.015-0.012,0.022-0.027,0.033-0.042   c0.01-0.014,0.024-0.024,0.031-0.04l0.211-0.053L50,15.56l23.845,0.894l0.211,0.053c0.008,0.017,0.022,0.027,0.033,0.041   c0.011,0.015,0.018,0.029,0.032,0.041c0.045,0.039,0.098,0.066,0.158,0.066c0.029,0,0.059-0.005,0.088-0.016   c0.018-0.007,0.024-0.026,0.039-0.036c0.028-0.018,0.048-0.035,0.067-0.063c0.019-0.027,0.028-0.052,0.035-0.085   c0.004-0.018,0.021-0.03,0.021-0.05v-0.018l2.969,0.255l1.232,2.557c0,0.001,0.001,0.001,0.002,0.002l1.583,3.265l1.882,4.851   l0.777,4.467l-0.09,0.179l-12.574-0.589c-0.001,0-0.002,0.001-0.003,0.001c-0.001,0-0.002-0.001-0.003-0.001l-12.737-0.298   c0,0-0.001,0-0.001,0c-0.003,0-0.005-0.001-0.008,0L50,31.174l-7.559-0.1c-0.001,0-0.002,0-0.003,0   c-0.001,0-0.002,0.001-0.003,0.001c-0.001,0-0.002-0.001-0.003-0.001l-12.737,0.298c-0.001,0-0.002,0.001-0.003,0.001   c-0.001,0-0.002-0.001-0.003-0.001l-12.574,0.589l-0.09-0.179l0.778-4.47l1.877-4.839l1.589-3.276c0,0,0,0,0-0.001l1.232-2.557   l2.97-0.255v0.018c0,0.019,0.016,0.031,0.021,0.05C25.499,16.487,25.508,16.512,25.527,16.539z M14.762,31.34l1.165-3.718   l1.743-4.422l2.454-5.309l2.009-2.296l2.082-1.951l1.256-0.056v2.295l-3.155,0.271c-0.012,0.001-0.018,0.012-0.029,0.015   c-0.032,0.007-0.054,0.023-0.081,0.042c-0.028,0.019-0.052,0.034-0.07,0.063c-0.006,0.009-0.019,0.011-0.024,0.021l-1.293,2.685   c0,0,0,0,0,0l-1.592,3.282c-0.002,0.004,0.001,0.007-0.001,0.011c-0.001,0.003-0.006,0.004-0.007,0.008l-1.891,4.874   c-0.003,0.009,0.003,0.017,0.001,0.026c-0.003,0.009-0.012,0.013-0.014,0.022l-0.796,4.575c-0.005,0.028,0.013,0.049,0.017,0.076   c0.004,0.027-0.007,0.054,0.006,0.079l0.199,0.398c0.009,0.018,0.026,0.027,0.039,0.042c0.011,0.013,0.019,0.024,0.032,0.035   c0.044,0.036,0.095,0.061,0.153,0.061c0.004,0,0.008,0,0.012,0l12.726-0.596c0.002,0,0.003,0,0.005,0l12.733-0.298l7.557,0.1   c0.001,0,0.001,0,0.002,0s0.001,0,0.001,0c0.001,0,0.001,0,0.002,0l7.556-0.1l12.734,0.298c0.002,0,0.003,0,0.005,0l12.726,0.596   c0.004,0,0.008,0,0.012,0c0.057,0,0.108-0.025,0.153-0.061c0.013-0.011,0.021-0.022,0.032-0.035   c0.013-0.015,0.03-0.024,0.039-0.042l0.199-0.398c0.013-0.026,0.002-0.053,0.006-0.08c0.004-0.026,0.021-0.048,0.017-0.075   l-0.796-4.575c-0.002-0.009-0.011-0.013-0.013-0.022c-0.002-0.009,0.004-0.017,0.001-0.026l-1.891-4.874   c-0.002-0.004-0.006-0.005-0.008-0.009c-0.001-0.003,0.001-0.007-0.001-0.01l-1.591-3.28c0-0.001,0-0.001,0-0.002l-1.294-2.686   c-0.005-0.011-0.018-0.012-0.025-0.022c-0.017-0.027-0.04-0.041-0.067-0.06c-0.028-0.019-0.05-0.036-0.083-0.043   c-0.011-0.003-0.017-0.014-0.029-0.015l-3.154-0.271V13.59l1.256,0.056l2.078,1.948l2.014,2.301l2.45,5.299l1.747,4.435   l1.162,3.707c0,0,0,0,0,0.001l0.23,0.833h-0.838c-0.003,0-0.005,0.003-0.009,0.004c-0.032,0.001-0.057,0.023-0.087,0.036   c-0.03,0.014-0.062,0.019-0.085,0.043c-0.002,0.002-0.006,0.002-0.008,0.004l-1.247,1.438l-2.124,0.675c0,0,0,0,0,0l-1.65,0.485   H74.71l-1.461-0.39c-0.009-0.002-0.016,0.005-0.025,0.003c-0.009-0.002-0.014-0.011-0.023-0.011l-2.985-0.199   c-0.002,0-0.003,0.002-0.005,0.002c-0.002,0-0.003-0.002-0.005-0.002L53.091,33.76c-0.034-0.002-0.05,0.019-0.077,0.027   c-0.02,0.006-0.041-0.002-0.059,0.009l-0.046,0.027c-0.003,0.003-0.007,0.003-0.009,0.006l-0.383,0.23h-2.419   c-0.039,0-0.066,0.025-0.099,0.041c-0.033-0.016-0.06-0.041-0.099-0.041h-2.418l-0.438-0.263c-0.022-0.013-0.047-0.005-0.071-0.011   c-0.023-0.006-0.041-0.026-0.064-0.025l-17.115,0.498c-0.002,0-0.003,0.002-0.005,0.002c-0.002,0-0.003-0.002-0.005-0.002   l-2.985,0.199c-0.009,0.001-0.014,0.01-0.023,0.011c-0.009,0.001-0.016-0.006-0.025-0.003l-1.461,0.39h-4.708l-1.651-0.486   c0,0,0,0,0,0l-2.122-0.675l-1.247-1.438c-0.002-0.003-0.006-0.002-0.008-0.004c-0.023-0.025-0.057-0.03-0.088-0.044   c-0.029-0.012-0.052-0.033-0.083-0.035c-0.003,0-0.005-0.004-0.009-0.004h-0.839L14.762,31.34z M13.649,35.409   c0.011-0.015,0.004-0.033,0.011-0.05c0.009-0.02,0.028-0.034,0.031-0.057l0.135-0.898c0.003-0.017-0.011-0.03-0.011-0.046   c-0.001-0.033-0.008-0.059-0.022-0.089c-0.014-0.031-0.029-0.053-0.054-0.075c-0.012-0.011-0.013-0.03-0.028-0.039l-0.359-0.225   c-0.018-0.011-0.039-0.004-0.059-0.01c-0.02-0.007-0.033-0.026-0.055-0.028l-2.471-0.18c0,0,0,0,0,0l-2.015-0.179l-1.956-0.212   l-0.473-0.619L6.194,30.86l0.088-2.869l0.353-1.059l1.06-0.354l3.052-0.132l1.273,0.084l0.292,0.175l0.344,2.798   c0.002,0.014,0.014,0.021,0.018,0.034c0.008,0.027,0.02,0.046,0.036,0.069c0.021,0.03,0.041,0.052,0.073,0.071   c0.012,0.007,0.015,0.022,0.028,0.028l0.525,0.21l0.127,2.624c0.001,0.031,0.024,0.051,0.035,0.078   c0.011,0.027,0.015,0.055,0.035,0.076c0.025,0.027,0.058,0.036,0.093,0.05c0.022,0.009,0.037,0.031,0.062,0.033l0.449,0.045   c0.008,0.001,0.017,0.001,0.025,0.001c0,0,0,0,0,0h0c0,0,0,0,0,0c0.001,0,0.002-0.001,0.003-0.001   c0.058-0.001,0.11-0.023,0.153-0.059c0.015-0.012,0.019-0.03,0.031-0.046c0.012-0.015,0.024-0.029,0.032-0.047h0.875l1.219,1.405   c0.014,0.016,0.037,0.013,0.054,0.025c0.021,0.016,0.033,0.042,0.059,0.05l2.189,0.696c0.001,0,0.003,0,0.004,0.001   c0,0,0.001,0.001,0.001,0.001l1.692,0.498c0.023,0.007,0.047,0.01,0.07,0.01h4.776c0.021,0,0.043-0.003,0.064-0.008l1.469-0.392   l2.955-0.197l17.039-0.495l0.435,0.261c0.04,0.024,0.084,0.036,0.128,0.036h2.487c0.039,0,0.066-0.025,0.099-0.041   c0.033,0.016,0.06,0.041,0.099,0.041h2.488c0.044,0,0.089-0.011,0.129-0.036l0.434-0.261l17.038,0.495l2.955,0.197l1.469,0.392   c0.021,0.006,0.043,0.008,0.064,0.008h4.776c0.023,0,0.047-0.003,0.07-0.01l1.691-0.498c0,0,0-0.001,0.001-0.001   c0.002,0,0.003,0,0.005-0.001l2.189-0.696c0.027-0.009,0.038-0.035,0.06-0.051c0.016-0.012,0.039-0.008,0.052-0.024l1.219-1.405   h0.875c0.008,0.017,0.02,0.03,0.031,0.045c0.012,0.017,0.017,0.036,0.033,0.049c0.044,0.037,0.098,0.06,0.157,0.06   c0.008,0,0.017,0,0.024-0.001l0.449-0.045c0.025-0.002,0.039-0.024,0.061-0.033c0.035-0.014,0.069-0.023,0.094-0.05   c0.02-0.021,0.023-0.048,0.035-0.075c0.012-0.027,0.034-0.047,0.036-0.078l0.127-2.624l0.524-0.21   c0.013-0.005,0.016-0.02,0.028-0.028c0.031-0.018,0.052-0.041,0.073-0.071c0.016-0.023,0.029-0.042,0.036-0.068   c0.004-0.013,0.016-0.02,0.018-0.034l0.344-2.797l0.293-0.176l1.272-0.084l3.052,0.132l1.061,0.354l0.353,1.059l0.089,2.873   l-0.128,1.839l-0.473,0.619l-1.957,0.212l-2.015,0.179c0,0,0,0,0,0l-2.471,0.18c-0.022,0.002-0.035,0.021-0.055,0.028   c-0.02,0.006-0.041-0.001-0.059,0.01l-0.359,0.225c-0.015,0.009-0.016,0.028-0.028,0.039c-0.024,0.022-0.039,0.044-0.053,0.074   c-0.014,0.031-0.021,0.056-0.022,0.09c-0.001,0.016-0.014,0.029-0.011,0.046l0.135,0.898c0.003,0.022,0.022,0.036,0.031,0.055   c0.007,0.017,0,0.036,0.011,0.051l0.384,0.549l-0.665,1.873l-0.556,0.611L50.097,38.64c-0.038,0-0.064,0.025-0.096,0.04   c-0.032-0.015-0.058-0.04-0.096-0.04l-35.419-0.198l-0.555-0.61l-0.666-1.875L13.649,35.409z M5.43,49.271l0.211-1.473l1.015-1.014   l1.417-1.239l1.424-0.978l1.133-0.697l1.316-0.395c0.021-0.006,0.029-0.028,0.047-0.039c0.029-0.017,0.052-0.032,0.072-0.059   c0.02-0.026,0.027-0.053,0.035-0.085c0.005-0.021,0.024-0.035,0.024-0.057v-0.537l0.012-0.261l1.005,3.806c0,0,0,0,0,0l0.403,1.652   c-0.001,0.016-0.013,0.028-0.011,0.044c0.001,0.009,0.01,0.014,0.012,0.022c0.002,0.008-0.004,0.015-0.001,0.023l0.07,0.198   l0.189,0.773c0.002,0.007,0.008,0.01,0.01,0.016c0.002,0.006-0.003,0.011,0,0.017l1.392,3.511c0.002,0.006,0.009,0.008,0.011,0.014   c0.007,0.014,0.019,0.022,0.028,0.035c0.027,0.037,0.06,0.064,0.101,0.081c0.009,0.004,0.012,0.014,0.021,0.017l1.79,0.53   c0.023,0.008,0.047,0.011,0.071,0.011c0,0,0.001,0,0.001,0l9.942-0.066c0.004,0,0.006-0.004,0.01-0.004   c0.061-0.003,0.116-0.026,0.159-0.067c0.016-0.016,0.018-0.039,0.03-0.059c0.018-0.03,0.044-0.056,0.048-0.094l0.297-2.788v0.906   c0,0.138,0.112,0.25,0.25,0.25s0.25-0.112,0.25-0.25v-7.354c0-0.008-0.008-0.013-0.008-0.02c-0.001-0.008,0.006-0.014,0.005-0.022   l-0.464-2.717c-0.004-0.021-0.023-0.031-0.031-0.049c-0.008-0.019-0.001-0.04-0.014-0.057l-0.729-0.994   c-0.017-0.023-0.046-0.026-0.068-0.041c-0.022-0.016-0.035-0.042-0.063-0.051l-1.126-0.332c-0.013-0.003-0.023,0.006-0.036,0.004   c-0.013-0.002-0.021-0.014-0.035-0.014c0,0-0.001,0-0.002,0l-7.415,0.066l-4.127-0.322l-0.397-0.454   c-0.091-0.104-0.25-0.114-0.353-0.023c-0.104,0.091-0.115,0.249-0.023,0.353l0.462,0.528l0,0l0.002,0.002   c0.006,0.007,0.016,0.004,0.022,0.01c0.04,0.038,0.087,0.07,0.146,0.074l4.242,0.331c0.007,0.001,0.013,0.001,0.019,0.001h0   c0,0,0.001,0,0.002,0l7.387-0.066l1.01,0.297l0.645,0.878l0.451,2.638v5.82l-0.1-0.646c-0.004-0.027-0.028-0.041-0.039-0.064   c-0.015-0.031-0.025-0.061-0.051-0.083c-0.023-0.02-0.052-0.023-0.081-0.033c-0.026-0.009-0.046-0.031-0.076-0.031   c-0.001,0-0.002,0-0.003,0l-11.865,0.132h-1.146l-0.238-0.675l0.542-0.083l11.711,0.198c0.001,0,0.003,0,0.004,0h0.597   c0.138,0,0.25-0.112,0.25-0.25v-0.53c0-0.002-0.002-0.004-0.002-0.006c0-0.002,0.002-0.003,0.002-0.005l-0.265-5.831   c0-0.001-0.001-0.001-0.001-0.002c-0.001-0.014-0.013-0.024-0.016-0.038c-0.012-0.055-0.031-0.105-0.071-0.14l-0.527-0.461   c-0.017-0.015-0.04-0.011-0.059-0.02c-0.019-0.01-0.029-0.031-0.05-0.035l-1.458-0.331c-0.01-0.002-0.018,0.006-0.028,0.005   c-0.01-0.001-0.016-0.011-0.027-0.011h-8.086h-1.81l-1.149-0.447c-0.015-0.006-0.029,0.004-0.044,0.001   c-0.015-0.003-0.024-0.018-0.04-0.018c-0.021-0.001-0.033,0.016-0.052,0.02c-0.032,0.006-0.057,0.014-0.084,0.032   c-0.03,0.019-0.049,0.041-0.068,0.071c-0.01,0.015-0.029,0.02-0.035,0.037c-0.006,0.014,0.004,0.028,0.001,0.043   c-0.003,0.016-0.018,0.025-0.018,0.042l-0.066,2.584c0,0.015,0.013,0.024,0.015,0.038c0.002,0.014-0.008,0.027-0.004,0.041   l0.993,3.242l0.292,1.282l-0.57,0.088l-0.365-1.497c0-0.001-0.001-0.001-0.001-0.002c0-0.001,0.001-0.002,0-0.003l-1.259-4.771   c-0.023-0.086-0.092-0.135-0.171-0.16l0.019-0.415l0.266-2.041l0.355-1.286c0.001-0.004-0.002-0.007-0.001-0.011   c0.001-0.004,0.005-0.006,0.006-0.01l0.143-0.773l0.496,1.398c0.008,0.021,0.026,0.033,0.039,0.05   c0.007,0.011,0.003,0.024,0.012,0.034l0.663,0.729c0.001,0.001,0.004,0.001,0.005,0.002c0.045,0.048,0.107,0.079,0.179,0.08   l35.528,0.199c0,0,0.001,0,0.001,0c0.038,0,0.065-0.025,0.097-0.04c0.032,0.015,0.059,0.04,0.097,0.04h0.001l35.527-0.199   c0.071,0,0.134-0.032,0.179-0.08c0.001-0.001,0.003-0.001,0.005-0.002l0.663-0.729c0.009-0.01,0.005-0.024,0.013-0.035   c0.012-0.018,0.031-0.029,0.038-0.05l0.496-1.398l0.143,0.773c0.001,0.004,0.005,0.006,0.006,0.01   c0.001,0.004-0.002,0.007-0.001,0.01l0.355,1.286l0.266,2.036l0.019,0.421c-0.079,0.025-0.148,0.074-0.171,0.16l-1.26,4.771   c0,0.001,0.001,0.002,0,0.003c0,0.001-0.001,0.001-0.001,0.002l-0.365,1.497l-0.569-0.087l0.293-1.288l0.991-3.235   c0.004-0.014-0.006-0.027-0.004-0.041c0.002-0.014,0.015-0.024,0.015-0.038l-0.066-2.584c0-0.016-0.014-0.025-0.018-0.04   c-0.003-0.015,0.007-0.029,0.001-0.044c-0.007-0.018-0.027-0.024-0.038-0.039c-0.018-0.028-0.036-0.047-0.063-0.066   c-0.027-0.018-0.051-0.027-0.083-0.034c-0.018-0.004-0.03-0.02-0.049-0.02c-0.002,0-0.004,0-0.007,0   c-0.016,0-0.025,0.015-0.04,0.018c-0.015,0.003-0.029-0.007-0.044-0.001l-1.149,0.447h-1.809h-8.087   c-0.01,0-0.017,0.01-0.027,0.011c-0.01,0.001-0.018-0.007-0.029-0.005l-1.458,0.331c-0.022,0.005-0.032,0.026-0.05,0.036   c-0.019,0.009-0.042,0.005-0.059,0.02l-0.527,0.461c-0.021,0.019-0.025,0.05-0.039,0.075c-0.019,0.034-0.046,0.064-0.048,0.102   c0,0.001-0.001,0.002-0.001,0.003l-0.266,5.831c0,0.002,0.002,0.004,0.002,0.006c0,0.002-0.002,0.003-0.002,0.005v0.53   c0,0.138,0.112,0.25,0.25,0.25h0.597c0.001,0,0.003,0,0.004,0l11.712-0.198l0.542,0.083l-0.238,0.675h-1.147l-11.864-0.132   c-0.001,0-0.002,0-0.003,0c-0.029,0-0.049,0.022-0.075,0.031c-0.029,0.01-0.057,0.013-0.08,0.033   c-0.027,0.022-0.037,0.053-0.052,0.085c-0.011,0.023-0.035,0.037-0.039,0.063l-0.1,0.646V43.68l0.45-2.636l0.645-0.878l1.01-0.297   l7.388,0.066c0,0,0.001,0,0.002,0c0.006,0,0.013,0,0.02-0.001l4.242-0.331c0.058-0.005,0.103-0.036,0.143-0.073   c0.008-0.007,0.019-0.004,0.026-0.012l0.464-0.53c0.091-0.104,0.08-0.262-0.023-0.353c-0.104-0.091-0.262-0.081-0.354,0.023   l-0.397,0.454l-4.127,0.322l-7.416-0.066c0,0-0.001,0-0.002,0c-0.013,0-0.021,0.012-0.034,0.014   c-0.013,0.002-0.024-0.008-0.036-0.004L73.16,39.71c-0.029,0.008-0.041,0.035-0.064,0.052c-0.022,0.015-0.05,0.018-0.067,0.04   L72.3,40.796c-0.012,0.016-0.006,0.036-0.013,0.054c-0.008,0.019-0.028,0.03-0.032,0.052l-0.464,2.717   c-0.001,0.008,0.005,0.013,0.005,0.021c-0.001,0.008-0.009,0.013-0.009,0.021v7.354c0,0.138,0.112,0.25,0.25,0.25   s0.25-0.112,0.25-0.25v-0.902l0.297,2.784c0.004,0.04,0.031,0.067,0.05,0.098c0.011,0.018,0.012,0.039,0.028,0.054   c0.04,0.039,0.093,0.059,0.152,0.064c0.007,0.001,0.011,0.007,0.018,0.007l9.942,0.066c0.001,0,0.001,0,0.002,0   c0.023,0,0.047-0.003,0.071-0.011l1.789-0.53c0.01-0.003,0.013-0.014,0.021-0.017c0.041-0.017,0.073-0.044,0.1-0.081   c0.009-0.013,0.021-0.02,0.028-0.035c0.003-0.006,0.009-0.008,0.011-0.014l1.393-3.511c0.002-0.005-0.002-0.011,0-0.016   c0.002-0.007,0.009-0.01,0.011-0.017l0.191-0.783l0.066-0.187c0.003-0.007-0.003-0.014-0.001-0.022   c0.002-0.009,0.011-0.014,0.013-0.023c0.002-0.016-0.01-0.028-0.011-0.043l0.403-1.653c0,0,0,0,0,0l1.004-3.803l0.012,0.269v0.527   c0,0.022,0.018,0.036,0.024,0.057c0.008,0.033,0.015,0.059,0.035,0.086c0.02,0.027,0.042,0.041,0.071,0.058   c0.018,0.011,0.026,0.033,0.048,0.039l1.317,0.395l1.133,0.696l1.425,0.98l1.412,1.234l1.019,1.018l0.21,1.469l0.063,7.18   c-0.014-0.002-0.023-0.016-0.037-0.016h-9.657c-0.005,0-0.008,0.005-0.013,0.005c-0.005,0-0.009-0.005-0.014-0.004l-2.56,0.27   c-0.001,0-0.001,0.001-0.002,0.001c-0.03,0.003-0.052,0.029-0.079,0.043c-0.03,0.016-0.066,0.022-0.088,0.049   c0,0.001-0.001,0-0.002,0.001l-1.168,1.482c-0.014,0.017-0.008,0.04-0.017,0.059c-0.009,0.02-0.03,0.032-0.034,0.055l-0.05,0.307   c-0.048-0.068-0.115-0.12-0.205-0.117l-3.845,0.199c0,0,0,0,0,0l-11.191,0.133l-15.64-0.066h-0.001   c-0.012,0-0.02,0.011-0.031,0.013c-0.012-0.002-0.019-0.013-0.031-0.013c0,0,0,0-0.001,0l-15.64,0.066l-11.191-0.133c0,0,0,0,0,0   l-3.844-0.199c-0.093,0.002-0.16,0.052-0.207,0.119l-0.051-0.31c-0.004-0.022-0.024-0.033-0.033-0.053   c-0.009-0.02-0.003-0.043-0.017-0.061l-1.167-1.481c0,0-0.001,0-0.001-0.001c-0.025-0.032-0.067-0.043-0.106-0.06   c-0.022-0.009-0.038-0.031-0.062-0.034c0,0-0.001,0-0.001-0.001l-2.561-0.27c-0.005-0.001-0.009,0.004-0.014,0.004   c-0.005,0-0.007-0.005-0.012-0.005H5.404c-0.015,0-0.023,0.013-0.037,0.015L5.43,49.271z M14.464,49.277h1.038   c0.001,0,0.002,0,0.003,0l11.648-0.13l0.095,0.615l-0.304,2.859l-9.684,0.065l-1.636-0.485L14.464,49.277z M13.764,42.897   l0.056-2.188l0.862,0.335c0.03,0.012,0.061,0.017,0.091,0.017h1.856h8.059l1.369,0.311l0.403,0.352l0.26,5.713v0.28h-0.342   L15.07,47.526l-0.319-1.403c-0.001-0.003-0.005-0.004-0.005-0.008c-0.001-0.003,0.002-0.006,0.001-0.01L13.764,42.897z    M85.255,46.115c-0.001,0.003-0.005,0.005-0.006,0.008l-0.32,1.403l-11.305,0.191h-0.343v-0.269l0.261-5.724l0.403-0.352   l1.368-0.311h8.059h1.855c0.03,0,0.061-0.005,0.091-0.017l0.862-0.335l0.056,2.187l-0.982,3.208   C85.253,46.108,85.256,46.111,85.255,46.115z M85.536,49.277l-1.16,2.924l-1.636,0.485l-9.683-0.065l-0.305-2.861l0.095-0.613   l11.647,0.13c0.001,0,0.002,0,0.003,0H85.536z M93.993,61.573c0,0.002-0.003,0.003-0.003,0.005l-1.657,9.602l-0.779,1.859   l-0.763,0.763c-0.009-0.029-0.036-0.043-0.054-0.065c-0.017-0.022-0.027-0.045-0.049-0.06c-0.028-0.018-0.059-0.02-0.093-0.027   c-0.025-0.005-0.046-0.023-0.072-0.021l-2.198,0.269l-4.573,0.359c-0.004,0-0.006,0.005-0.01,0.005   c-0.006,0-0.009-0.006-0.015-0.006c-0.001,0-0.002,0-0.003,0l-4.043,0.045c-0.042,0.001-0.072,0.027-0.107,0.046l0.219-1.792   l11.75-0.089c0.138-0.001,0.249-0.114,0.248-0.252s-0.112-0.248-0.25-0.248c-0.001,0-0.001,0-0.002,0l-11.686,0.089l1.157-10.852   l0.022-0.134l0.032-0.011c0.086-0.029,0.13-0.103,0.149-0.186l2.955-1.723h4.705c0.006,0,0.013,0,0.019-0.001l4.375-0.331   c0.014-0.001,0.021-0.014,0.034-0.017c0.035-0.008,0.07-0.012,0.101-0.035l0.944-0.734v1.987l-0.354,1.547   C93.992,61.568,93.994,61.57,93.993,61.573z M88.006,75.468c0.027-0.006,0.04-0.031,0.062-0.045   c0.02-0.012,0.045-0.009,0.062-0.027l0.673-0.714l1.605-0.497l-0.983,0.983l-1.26,0.504l-1.201,0.04L88.006,75.468z M86.382,75.336   l-3.014,0.298c0.004-0.001,0.005-0.006,0.008-0.008c0.051-0.023,0.097-0.056,0.124-0.11l0.385-0.768l4.487-0.352c0,0,0,0,0.001,0   c0.003,0,0.007,0,0.01-0.001l0.004,0l-0.569,0.604L86.382,75.336z M69.957,72.36c0-0.005,0.005-0.008,0.005-0.014l-0.045-2.155   c-0.001-0.028-0.022-0.047-0.031-0.072c-0.008-0.023-0.002-0.049-0.017-0.07l-0.718-0.988c-0.008-0.011-0.022-0.01-0.031-0.019   c-0.012-0.018-0.016-0.037-0.032-0.052l-0.078-1.782c0-0.007-0.007-0.01-0.008-0.016c-0.001-0.007,0.005-0.012,0.004-0.019   l-0.537-2.862c-0.001-0.006-0.008-0.008-0.009-0.014c-0.001-0.005,0.003-0.009,0.001-0.014l-0.373-1.192l9.991,0.172l-0.084,5.008   l-0.673,3.87l-7.364,0.263l0.003-0.03C69.961,72.369,69.956,72.365,69.957,72.36z M68.512,67.249l0.073,1.663l-5.622-0.125   c-0.002,0-0.004,0-0.006,0c-0.001,0-0.002,0-0.003,0L50,68.92l-12.954-0.132c-0.001,0-0.001,0-0.002,0c0,0,0,0,0,0   c-0.002,0-0.004,0-0.005,0l-5.622,0.125l0.072-1.667l0.53-2.826l0.388-1.242l17.564,0.089c0,0,0,0,0.001,0c0,0,0.001,0,0.001,0   l0.027,0l0.027,0h0.001c0,0,0,0,0.001,0l17.564-0.089l0.386,1.234L68.512,67.249z M31.539,64.299   c-0.001,0.005-0.007,0.007-0.008,0.013l-0.537,2.862c-0.001,0.006,0.004,0.011,0.004,0.017c-0.001,0.007-0.008,0.011-0.008,0.018   l-0.077,1.782c-0.016,0.014-0.02,0.033-0.032,0.051c-0.009,0.009-0.023,0.008-0.031,0.019l-0.719,0.988   c-0.016,0.022-0.009,0.048-0.017,0.072c-0.009,0.025-0.03,0.043-0.031,0.071l-0.045,2.155c0,0.005,0.005,0.008,0.005,0.014   c0,0.005-0.005,0.009-0.004,0.014l0.003,0.03l-7.363-0.263l-0.673-3.87l-0.085-5.008l9.99-0.172l-0.373,1.192   C31.535,64.289,31.54,64.293,31.539,64.299z M22.471,72.657c0.015,0,0.029-0.001,0.043-0.004c0.011-0.002,0.016-0.014,0.027-0.017   l7.545,0.27l0.175,1.961l-0.024,0.287h-8.881l-0.412-0.686l-0.232-1.897l1.687,0.06C22.424,72.639,22.444,72.657,22.471,72.657z    M21.215,75.654h9.252h0c0,0,0,0,0,0c0.066,0,0.126-0.028,0.171-0.071c0.016-0.015,0.017-0.039,0.028-0.058   c0.02-0.032,0.046-0.06,0.049-0.1l0.045-0.539c0.001-0.008-0.007-0.013-0.007-0.021c0-0.008,0.008-0.013,0.007-0.022l-0.184-2.056   c0.021-0.035,0.048-0.068,0.05-0.112c0.003-0.073-0.028-0.136-0.076-0.183l-0.013-0.148l0.043-2.063l0.551-0.757   c0.003,0,0.005,0.003,0.008,0.003c0.003,0,0.007,0,0.011,0c0.084,0,0.147-0.048,0.192-0.112l5.704-0.127l12.917,0.132   c0.001,0,0.001,0.001,0.002,0.001c0.001,0,0.001,0,0.002,0l0.032,0l0.032,0c0.001,0,0.002,0,0.003,0   c0.001,0,0.001-0.001,0.002-0.001l12.916-0.132l5.705,0.127c0.046,0.064,0.109,0.112,0.192,0.112c0.004,0,0.007,0,0.011,0   c0.003,0,0.005-0.003,0.008-0.004l0.549,0.756l0.043,2.064l-0.013,0.148c-0.048,0.047-0.079,0.111-0.076,0.183   c0.002,0.044,0.029,0.076,0.05,0.112l-0.184,2.056c-0.001,0.008,0.007,0.014,0.007,0.022c0,0.008-0.007,0.013-0.007,0.021   l0.045,0.539c0.003,0.041,0.03,0.069,0.05,0.102c0.011,0.019,0.012,0.042,0.028,0.057c0.045,0.044,0.105,0.071,0.172,0.071h9.253   c0.047,0,0.091-0.016,0.13-0.04l-0.047,0.381l-28.809,0.17c-0.023,0-0.038,0.019-0.06,0.025c-0.021-0.006-0.036-0.025-0.06-0.025   l-28.809-0.17l-0.047-0.381C21.124,75.639,21.168,75.654,21.215,75.654z M78.644,75.154h-8.882l-0.024-0.287l0.175-1.961   l7.546-0.27c0.011,0.003,0.015,0.015,0.027,0.017c0.015,0.003,0.029,0.004,0.043,0.004c0.027,0,0.047-0.018,0.071-0.026l1.687-0.06   l-0.232,1.898L78.644,75.154z M77.832,72.122l0.659-3.786c0.001-0.007-0.005-0.013-0.004-0.02c0.001-0.007,0.008-0.012,0.008-0.019   l0.089-5.276c0.002-0.138-0.107-0.252-0.246-0.254l-10.468-0.18c-0.001,0-0.003,0-0.004,0c-0.075,0-0.137,0.037-0.183,0.09   L50,62.766l-17.677-0.089c-0.044-0.057-0.106-0.097-0.193-0.09l-10.468,0.18c-0.138,0.002-0.248,0.116-0.246,0.254l0.09,5.276   c0,0.008,0.008,0.012,0.008,0.019c0.001,0.007-0.006,0.013-0.004,0.02l0.659,3.787l-1.517-0.054l-1.154-10.823l0.432,0.144   c0.006,0.002,0.012,0.001,0.018,0.003c0.002,0,0.002,0.003,0.004,0.003l1.127,0.265c0.019,0.005,0.039,0.007,0.057,0.007h28.833   c0.012,0,0.02-0.011,0.031-0.013c0.012,0.002,0.019,0.013,0.031,0.013h28.833c0.019,0,0.038-0.002,0.058-0.007l1.127-0.265   c0.002,0,0.003-0.003,0.004-0.003c0.006-0.001,0.011-0.001,0.017-0.003l0.432-0.144l-1.154,10.822L77.832,72.122z M12.183,74.999   l-0.569-0.604l0.003,0c0.003,0,0.007,0,0.01,0.001c0,0,0,0,0.001,0l4.487,0.352l0.385,0.768c0.027,0.054,0.073,0.087,0.125,0.11   c0.004,0.002,0.005,0.006,0.008,0.008l-3.016-0.298L12.183,74.999z M13.036,75.713l-1.202-0.041l-1.26-0.504l-0.984-0.984   l1.605,0.497l0.674,0.715c0.017,0.018,0.043,0.016,0.064,0.027c0.022,0.013,0.035,0.038,0.061,0.044L13.036,75.713z M16.277,74.257   c-0.001,0-0.002,0-0.003,0c-0.006,0-0.009,0.006-0.015,0.006c-0.004-0.001-0.006-0.005-0.01-0.005l-4.574-0.359L9.477,73.63   c-0.025-0.002-0.044,0.015-0.068,0.02c-0.035,0.006-0.066,0.008-0.095,0.028c-0.025,0.016-0.035,0.04-0.053,0.064   c-0.017,0.022-0.043,0.034-0.051,0.062L8.445,73.04l-0.778-1.857L6.01,61.578c0-0.003-0.003-0.004-0.004-0.006   c0-0.002,0.002-0.004,0.001-0.006l-0.353-1.544v-1.99l0.944,0.734c0.029,0.023,0.065,0.026,0.099,0.034   c0.013,0.003,0.021,0.017,0.035,0.018l4.375,0.331c0.007,0.001,0.013,0.001,0.019,0.001h0h4.705l2.955,1.723   c0.019,0.083,0.063,0.157,0.149,0.186l0.033,0.011l0.022,0.134l1.157,10.852L8.46,71.967c0,0-0.001,0-0.002,0   c-0.137,0-0.249,0.11-0.25,0.248s0.11,0.251,0.248,0.252l11.75,0.089l0.219,1.792c-0.034-0.019-0.065-0.045-0.107-0.046   L16.277,74.257z M5.654,57.427v-0.496h9.39l2.447,0.258l1.062,1.347l0.294,1.793l-2.822-1.645c-0.021-0.013-0.044-0.004-0.067-0.01   c-0.021-0.006-0.036-0.025-0.059-0.025h-4.766l-4.287-0.324l-1.134-0.882C5.695,57.43,5.673,57.436,5.654,57.427z M80.565,59.914   c0.001-0.007,0.008-0.011,0.008-0.018c0-0.027-0.021-0.045-0.028-0.07c-0.01-0.033-0.014-0.063-0.036-0.089   c-0.02-0.024-0.048-0.032-0.076-0.047c-0.024-0.013-0.04-0.038-0.069-0.043c-0.008-0.001-0.013,0.005-0.021,0.005   c-0.007-0.001-0.011-0.008-0.018-0.008l-8.484-0.066c-0.001,0-0.001,0-0.002,0s-0.002,0-0.002,0L57.651,59.71h-7.554   c-0.038,0-0.065,0.025-0.097,0.04c-0.032-0.015-0.059-0.04-0.097-0.04h-7.554l-14.185-0.133c0,0-0.001,0-0.001,0.001   c0,0-0.001-0.001-0.001-0.001s-0.001,0-0.002,0l-8.484,0.066c-0.008,0-0.012,0.007-0.019,0.008   c-0.007,0.001-0.013-0.006-0.02-0.004c-0.027,0.004-0.041,0.028-0.064,0.04c-0.03,0.016-0.06,0.025-0.081,0.05   c-0.021,0.025-0.025,0.055-0.035,0.086c-0.008,0.025-0.029,0.044-0.029,0.072c0,0.008,0.007,0.012,0.008,0.019   c0.001,0.007-0.006,0.013-0.005,0.02l0.066,0.397c0.006,0.034,0.03,0.055,0.047,0.083c0.012,0.019,0.015,0.04,0.032,0.056   c0.04,0.038,0.091,0.058,0.147,0.063c0.006,0.001,0.01,0.007,0.017,0.007l9.145,0.133h0l12.13,0.265c0.002,0,0.003,0,0.005,0h8.698   v0.229H21.164l-1.083-0.254l-0.668-0.223l-0.274-1.668c0.038,0.028,0.077,0.058,0.128,0.061l3.844,0.199c0.003,0,0.007,0,0.01,0   l11.202,0.133c0.001,0,0.002,0,0.003,0c0,0,0,0,0.001,0l15.643-0.066c0.012,0,0.019-0.011,0.03-0.013   c0.011,0.002,0.018,0.013,0.03,0.013l15.643,0.066h0.001c0.001,0,0.002,0,0.003,0l11.202-0.133c0.003,0,0.007,0,0.01,0l3.845-0.199   c0.051-0.003,0.089-0.033,0.127-0.061l-0.274,1.668l-0.667,0.222l-1.085,0.255H50.281v-0.229h8.698c0.002,0,0.004,0,0.006,0   l12.13-0.265h0l9.145-0.133c0.008,0,0.013-0.008,0.021-0.009c0.054-0.006,0.104-0.025,0.142-0.061   c0.016-0.015,0.019-0.036,0.031-0.054c0.018-0.028,0.042-0.05,0.048-0.084l0.065-0.397C80.571,59.927,80.564,59.921,80.565,59.914z    M94.288,57.443l-1.134,0.882l-4.287,0.324h-4.767c-0.023,0-0.038,0.019-0.059,0.025c-0.022,0.006-0.046-0.003-0.067,0.01   l-2.821,1.645l0.294-1.793l1.061-1.346l2.446-0.258h9.39v0.496C94.327,57.436,94.305,57.43,94.288,57.443z M17.597,82.518   c0,0.001-0.001,0.002-0.001,0.003v1.789l-0.643,1.458l-0.779,1.271l-2.879,0.172h-4.33l-2.632-0.125l-0.278-1.467c0,0,0,0,0,0   l-0.267-1.645l-0.179-2.324c0-0.001-0.001-0.001-0.001-0.001c0-0.001,0.001-0.002,0.001-0.002L5.34,78.78l-0.09-8.899l0.079-9.041   l0.188,0.824v0l1.662,9.63c0.002,0.011,0.013,0.017,0.016,0.028c0.003,0.009-0.003,0.017,0,0.026l0.809,1.931   c0.009,0.021,0.028,0.032,0.041,0.049c0.007,0.009,0.004,0.022,0.013,0.031l2.201,2.2c0.013,0.013,0.032,0.01,0.047,0.019   c0.015,0.01,0.02,0.029,0.037,0.036l1.347,0.539c0.026,0.01,0.052,0.013,0.079,0.015c0.002,0,0.004,0.003,0.006,0.003l3.993,0.135   c0,0,0,0,0,0l1.915,0.095l0.003,2.568l-0.09,3.547C17.596,82.516,17.597,82.517,17.597,82.518z M17.907,75.565l-1.005-0.362   l-0.221-0.442l3.632,0.04c0.001,0,0.002,0,0.003,0c0.061,0,0.114-0.028,0.157-0.065l0.154,1.255l-0.904-0.005   c-0.032-0.077-0.087-0.141-0.176-0.156L17.907,75.565z M81.848,78.726l-31.834,0.357c-0.005,0-0.008,0.005-0.014,0.006   c-0.005,0-0.008-0.006-0.014-0.006l-31.801-0.357l-0.003-2.301l1.223,0.06c0.003,0,0.007,0,0.011,0l30.521,0.18   c0,0,0.001,0,0.001,0c0.024,0,0.04-0.019,0.062-0.025c0.022,0.006,0.037,0.025,0.061,0.025c0,0,0.001,0,0.002,0l30.521-0.18   c0.003,0,0.007,0,0.011,0l1.256-0.062L81.848,78.726z M80.452,75.831c-0.089,0.015-0.144,0.079-0.176,0.156l-0.903,0.005   l0.154-1.255c0.044,0.037,0.096,0.065,0.157,0.065c0.001,0,0.002,0,0.003,0l3.633-0.04l-0.221,0.441l-1.007,0.362L80.452,75.831z    M94.66,78.78l-0.269,2.865c0,0.001,0.001,0.001,0.001,0.002c0,0.001-0.001,0.001-0.001,0.002l-0.178,2.318l-0.268,1.651   c0,0,0,0,0,0l-0.278,1.467l-2.631,0.125h-4.331l-2.879-0.172l-0.777-1.268l-0.645-1.461v-1.789c0-0.001-0.001-0.002-0.001-0.003   c0-0.001,0.001-0.002,0.001-0.003l-0.088-3.466c0.009-0.026,0.031-0.046,0.031-0.075l0.004-2.575l1.881-0.093c0,0,0,0,0,0   l3.994-0.135c0.003,0,0.004-0.003,0.006-0.003c0.026-0.002,0.052-0.005,0.078-0.015l1.348-0.539   c0.017-0.007,0.022-0.026,0.037-0.036c0.015-0.01,0.034-0.007,0.047-0.02l2.2-2.2c0.009-0.009,0.006-0.021,0.013-0.031   c0.013-0.017,0.032-0.028,0.041-0.049l0.809-1.931c0.004-0.009-0.003-0.018,0-0.027c0.003-0.01,0.014-0.016,0.016-0.027l1.66-9.617   c0,0,0,0,0,0l0.191-0.835l0.079,9.039L94.66,78.78z"></path><path d="M85.747,63.013c-1.871,0-3.394,1.632-3.394,3.637s1.522,3.636,3.394,3.636c1.872,0,3.395-1.631,3.395-3.636   S87.619,63.013,85.747,63.013z M88.556,67.372c0.035-0.176,0.055-0.357,0.055-0.543c0-1.53-1.244-2.774-2.774-2.774   s-2.774,1.244-2.774,2.774s1.244,2.774,2.774,2.774c1.13,0,2.096-0.681,2.527-1.652c-0.456,1.079-1.451,1.834-2.616,1.834   c-1.596,0-2.894-1.406-2.894-3.136s1.298-3.137,2.894-3.137s2.895,1.407,2.895,3.137C88.642,66.899,88.608,67.139,88.556,67.372z    M88.111,66.829c0,1.254-1.021,2.274-2.274,2.274s-2.274-1.021-2.274-2.274s1.021-2.274,2.274-2.274S88.111,65.575,88.111,66.829z"></path><path d="M51.874,48.059c0.012,0.028,0.013,0.061,0.034,0.083c0.025,0.025,0.063,0.029,0.096,0.042   c0.027,0.011,0.047,0.034,0.078,0.034c0.001,0,0.002,0,0.003,0l18.488,0.066h0c0.002,0,0.003,0,0.005,0h0.001   c0.068,0,0.13-0.028,0.175-0.073c0.011-0.011,0.009-0.029,0.018-0.041c0.027-0.039,0.055-0.079,0.057-0.13l0.133-5.491c0,0,0,0,0,0   l0.065-1.193c0.001-0.029-0.019-0.049-0.027-0.076c-0.007-0.026,0-0.053-0.015-0.077l-0.53-0.795   c-0.014-0.021-0.04-0.024-0.059-0.039c-0.019-0.016-0.027-0.042-0.051-0.052l-0.928-0.397c-0.017-0.007-0.033,0.003-0.05-0.001   c-0.017-0.004-0.028-0.019-0.045-0.019l-6.098-0.066c-0.001,0-0.002,0-0.003,0H52.223c-0.001,0-0.003,0-0.004,0   c-0.068,0-0.13,0.028-0.176,0.073c-0.014,0.014-0.013,0.037-0.023,0.055c-0.023,0.037-0.05,0.072-0.051,0.118l-0.133,7.885   c0,0.001,0.001,0.001,0.001,0.002s-0.001,0.001-0.001,0.002C51.836,48.002,51.86,48.028,51.874,48.059z M52.363,46.34   c0.019,0.005,0.033,0.022,0.054,0.022h17.499c0.138,0,0.25-0.112,0.25-0.25v-0.53c0-0.138-0.112-0.25-0.25-0.25H52.417   c-0.014,0-0.023,0.013-0.037,0.015l0.008-0.443H69.85c0.138,0,0.25-0.112,0.25-0.25v-0.331c0-0.138-0.112-0.25-0.25-0.25H52.402   l0.007-0.428h17.64c0.138,0,0.25-0.112,0.25-0.25v-0.464c0-0.138-0.112-0.25-0.25-0.25H52.425l0.005-0.295h17.685   c0.138,0,0.25-0.112,0.25-0.25v-0.332c0-0.138-0.112-0.25-0.25-0.25H52.444l0.021-1.223h10.754l6.047,0.066l0.814,0.349   l0.442,0.663l-0.061,1.11c0,0.002,0.002,0.003,0.002,0.005c0,0.001-0.002,0.002-0.002,0.003l-0.127,5.255L52.34,47.718   L52.363,46.34z M52.667,45.862v-0.03h16.999v0.03H52.667z"></path><path d="M51.953,54.114h15.588c0.138,0,0.25-0.112,0.25-0.25v-0.331c0-0.138-0.112-0.25-0.25-0.25H51.953   c-0.138,0-0.25,0.112-0.25,0.25v0.331C51.703,54.002,51.815,54.114,51.953,54.114z"></path><path d="M51.688,55.439h13.678c0.138,0,0.25-0.112,0.25-0.25v-0.331c0-0.138-0.112-0.25-0.25-0.25H51.688   c-0.138,0-0.25,0.112-0.25,0.25v0.331C51.438,55.327,51.551,55.439,51.688,55.439z"></path><path d="M70.124,69.347c0.138-0.012,0.239-0.133,0.228-0.271l-0.447-5.188c-0.012-0.137-0.132-0.244-0.271-0.228   c-0.138,0.012-0.239,0.133-0.228,0.271l0.447,5.188c0.011,0.13,0.12,0.229,0.249,0.229C70.109,69.348,70.117,69.348,70.124,69.347z   "></path><path d="M77.064,69.258c0.006,0.001,0.012,0.001,0.018,0.001c0.13,0,0.24-0.101,0.249-0.232l0.357-5.099   c0.01-0.138-0.094-0.257-0.231-0.267c-0.141-0.021-0.258,0.094-0.267,0.231l-0.357,5.099   C76.823,69.129,76.927,69.248,77.064,69.258z"></path><path d="M70.595,64.112l6.013,0.114c0.002,0,0.003,0,0.005,0c0.136,0,0.247-0.108,0.25-0.245c0.003-0.138-0.107-0.252-0.245-0.255   l-6.013-0.114c-0.114-0.007-0.252,0.106-0.255,0.245C70.347,63.995,70.457,64.109,70.595,64.112z"></path><path d="M76.05,69.107l-5.21-0.229c-0.142,0.009-0.255,0.101-0.261,0.239c-0.006,0.138,0.101,0.255,0.239,0.261l5.21,0.229   c0.004,0,0.007,0,0.011,0c0.133,0,0.244-0.104,0.25-0.239C76.295,69.23,76.188,69.113,76.05,69.107z"></path><path d="M14.252,70.285c1.872,0,3.395-1.631,3.395-3.636s-1.523-3.637-3.395-3.637s-3.394,1.632-3.394,3.637   S12.381,70.285,14.252,70.285z M11.358,66.649c0-1.729,1.298-3.137,2.894-3.137c1.596,0,2.895,1.407,2.895,3.137   s-1.298,3.136-2.895,3.136c-1.165,0-2.16-0.756-2.616-1.835c0.43,0.972,1.397,1.653,2.526,1.653c1.53,0,2.774-1.244,2.774-2.774   s-1.245-2.774-2.774-2.774s-2.774,1.244-2.774,2.774c0,0.186,0.02,0.367,0.055,0.543C11.392,67.139,11.358,66.899,11.358,66.649z    M11.889,66.829c0-1.254,1.02-2.274,2.274-2.274s2.274,1.021,2.274,2.274s-1.021,2.274-2.274,2.274S11.889,68.083,11.889,66.829z"></path><path d="M47.982,48.512L29.688,48.38c-0.001,0-0.001,0-0.002,0c-0.002,0-0.002,0.002-0.004,0.002c-0.002,0-0.003-0.002-0.004-0.002   c-0.032,0.001-0.054,0.025-0.081,0.037c-0.031,0.013-0.065,0.016-0.088,0.04c-0.022,0.022-0.024,0.056-0.036,0.085   c-0.012,0.029-0.036,0.052-0.036,0.086c0,0.002,0.002,0.003,0.002,0.005c0,0.002-0.002,0.003-0.002,0.005l0.066,1.988v1.714   c0,0.013,0.012,0.021,0.014,0.034c0.002,0.013-0.008,0.024-0.004,0.036l0.332,1.127c0.013,0.047,0.044,0.081,0.078,0.111   c0.005,0.004,0.004,0.012,0.009,0.016l0.004,0.003c0,0,0.001,0,0.001,0.001l1.188,0.924c0.001,0,0.002,0,0.002,0.001   c0.001,0.001,0.001,0.002,0.001,0.002l2.121,1.59c0.014,0.01,0.032,0.008,0.047,0.016c0.011,0.005,0.015,0.019,0.026,0.022   l1.657,0.53c0.018,0.006,0.036,0.007,0.054,0.008c0.003,0,0.004,0.003,0.007,0.003l3.314,0.198c0.005,0,0.009,0,0.014,0l11.6,0.066   c0,0,0.001,0,0.001,0c0.012,0,0.02-0.011,0.031-0.013c0.012,0.002,0.019,0.013,0.031,0.013h0.001l11.6-0.066   c0.005,0,0.009,0,0.014,0l3.314-0.198c0.003,0,0.004-0.003,0.007-0.003c0.018-0.002,0.036-0.003,0.055-0.008l1.656-0.53   c0.012-0.004,0.015-0.017,0.026-0.022c0.016-0.007,0.033-0.005,0.048-0.016l2.121-1.59c0.001-0.001,0.001-0.002,0.001-0.002   c0,0,0.001,0,0.002,0l1.188-0.924c0,0,0.001-0.001,0.001-0.001l0.004-0.003c0.005-0.004,0.004-0.011,0.008-0.015   c0.034-0.03,0.065-0.065,0.078-0.112l0.331-1.127c0.004-0.013-0.006-0.024-0.004-0.037c0.002-0.012,0.014-0.02,0.014-0.033v-1.714   l0.066-1.988c0-0.002-0.002-0.003-0.002-0.005c0-0.002,0.002-0.003,0.002-0.005c0-0.016-0.015-0.025-0.019-0.04   c-0.01-0.053-0.026-0.101-0.064-0.136c-0.007-0.007-0.017-0.005-0.024-0.011c-0.04-0.03-0.081-0.059-0.134-0.061   c-0.002,0-0.004,0.002-0.006,0.002c-0.002,0-0.003-0.002-0.005-0.002l-18.294,0.132c-0.029,0-0.049,0.022-0.075,0.032   c-0.035,0.012-0.074,0.017-0.1,0.042c-0.011,0.011-0.01,0.029-0.018,0.042c-0.026,0.038-0.054,0.076-0.055,0.126L51.768,48.8   l-0.061-1.286v-1.262c0-0.138-0.112-0.25-0.25-0.25h-1.401c-0.022,0-0.036,0.018-0.056,0.023c-0.02-0.005-0.034-0.023-0.056-0.023   h-1.401c-0.138,0-0.25,0.112-0.25,0.25v1.272l-0.061,1.283l-0.002-0.052c-0.001-0.025-0.021-0.039-0.029-0.061   C48.17,48.594,48.093,48.513,47.982,48.512z M29.945,48.882l17.793,0.129l0.042,1.357H29.994L29.945,48.882z M52.262,49.01   l17.793-0.129l-0.05,1.485H52.22L52.262,49.01z M51.766,48.862l0,0.005c0-0.001-0.001-0.001-0.001-0.002   C51.765,48.864,51.766,48.863,51.766,48.862z M48.791,47.531c0-0.002,0.003-0.004,0.003-0.006v-1.023h1.151   c0.022,0,0.036-0.018,0.056-0.023c0.02,0.005,0.034,0.023,0.056,0.023h1.151v1.023c0,0.002,0.002,0.003,0.002,0.005   c0,0.002-0.002,0.004-0.002,0.006l0.058,1.217l-0.395,0.345l-0.538,0.269l-0.21-0.03c-0.03-0.007-0.056-0.027-0.087-0.023L50,49.32   l-0.036-0.005c-0.033-0.004-0.059,0.016-0.089,0.023l-0.206,0.029l-0.538-0.269l-0.396-0.345l0.058-1.216   C48.793,47.534,48.791,47.533,48.791,47.531z M48.308,49.036c0.004,0.004,0.003,0.01,0.007,0.014l0.51,0.445   c0.009,0.008,0.023,0.006,0.033,0.012c0.009,0.006,0.01,0.018,0.02,0.023l0.637,0.318c0.036,0.018,0.073,0.026,0.11,0.026   c0,0,0.001,0,0.001,0c0,0,0,0,0,0c0,0,0,0,0,0s0,0,0,0c0.012,0,0.023-0.001,0.035-0.002L50,49.825l0.339,0.048   c0.012,0.001,0.023,0.002,0.035,0.002c0.038,0,0.076-0.008,0.111-0.026l0.637-0.318c0.01-0.005,0.011-0.017,0.02-0.023   c0.01-0.007,0.023-0.004,0.033-0.012l0.51-0.445c0.004-0.004,0.003-0.01,0.007-0.014c0.023-0.023,0.029-0.054,0.042-0.084   c0.009-0.022,0.029-0.04,0.032-0.064l-0.054,1.736l-1.68-0.056c-0.002,0-0.003-0.002-0.005-0.002L50,50.567l-0.027-0.001   c-0.002,0-0.003,0.002-0.005,0.002l-1.679,0.056l-0.054-1.736c0.003,0.024,0.023,0.043,0.033,0.066   C48.28,48.984,48.285,49.014,48.308,49.036z M48.235,48.864c0,0.001-0.001,0.002-0.001,0.003l0-0.006   C48.234,48.862,48.235,48.863,48.235,48.864z M50,51.068l1.924,0.064c0.044,0.039,0.099,0.067,0.161,0.067h17.911v0.698   c-0.006,0-0.009-0.006-0.015-0.006H52.02c-0.138,0-0.25,0.112-0.25,0.25v0.331c0,0.138,0.112,0.25,0.25,0.25h17.854l-0.175,0.597   l-1.125,0.875c0,0-0.001,0-0.001,0l-2.088,1.565L64.9,56.266l-3.284,0.196c0,0,0,0,0,0L50.03,56.529   c-0.012,0-0.019,0.011-0.03,0.013c-0.011-0.002-0.018-0.013-0.03-0.013l-11.586-0.066c0,0,0,0,0,0L35.1,56.266l-1.586-0.508   l-2.087-1.565c0,0,0,0,0,0l-1.125-0.875l-0.175-0.596H47.98c0.138,0,0.25-0.112,0.25-0.25v-0.331c0-0.138-0.112-0.25-0.25-0.25   H30.018c-0.006,0-0.009,0.006-0.015,0.006v-0.699h17.912c0.063,0,0.118-0.028,0.162-0.067L50,51.068z"></path><path d="M17.087,54.445l10.075,0.199c0.001,0,0.001,0,0.002,0l1.838,0.126l1.264,0.885l1.584,1.254   c0.012,0.009,0.027,0.007,0.039,0.013c0.009,0.005,0.012,0.018,0.022,0.022l2.121,0.861c0.018,0.007,0.036,0.008,0.054,0.011   c0.004,0.001,0.006,0.005,0.011,0.006l1.657,0.199c0.01,0.001,0.019,0.002,0.029,0.002c0,0,0,0,0,0l14.185,0.066c0,0,0,0,0.001,0   c0.012,0,0.02-0.011,0.031-0.013c0.012,0.002,0.019,0.013,0.031,0.013h0.001l14.185-0.066c0,0,0,0,0,0   c0.009,0,0.019-0.001,0.029-0.002l1.657-0.199c0.005-0.001,0.007-0.005,0.011-0.006c0.018-0.003,0.036-0.003,0.052-0.01   l2.121-0.861c0.01-0.004,0.012-0.016,0.022-0.021c0.013-0.007,0.028-0.004,0.04-0.014l1.584-1.254l1.264-0.885l1.839-0.126   c0,0,0.001,0,0.002,0l10.074-0.199c0.138-0.003,0.248-0.117,0.245-0.255c-0.003-0.137-0.114-0.245-0.25-0.245   c-0.002,0-0.003,0-0.005,0l-10.074,0.199c-0.003,0-0.004,0.003-0.007,0.003c-0.002,0-0.004-0.002-0.006-0.002l-1.923,0.132   c-0.024,0.002-0.038,0.022-0.059,0.029c-0.022,0.007-0.047,0.001-0.067,0.015l-1.325,0.928c-0.002,0.002-0.002,0.005-0.004,0.007   c-0.002,0.002-0.005,0-0.007,0.002l-1.564,1.238l-2.055,0.834l-1.609,0.193L50.03,57.59c-0.012,0-0.019,0.011-0.03,0.013   c-0.011-0.002-0.018-0.013-0.03-0.013l-14.172-0.066L34.19,57.33l-2.056-0.835l-1.563-1.237c-0.002-0.002-0.005,0-0.007-0.002   c-0.002-0.002-0.002-0.005-0.004-0.007l-1.326-0.928c-0.021-0.014-0.045-0.007-0.067-0.015c-0.021-0.008-0.035-0.028-0.059-0.029   l-1.922-0.132c-0.003-0.001-0.006,0.001-0.009,0c-0.001,0-0.002-0.001-0.003-0.001l-10.075-0.199   c-0.125-0.019-0.252,0.106-0.255,0.245C16.84,54.328,16.949,54.442,17.087,54.445z"></path><path d="M29.039,42.54l0.132,5.5c0.001,0.043,0.028,0.074,0.047,0.108c0.012,0.021,0.011,0.047,0.028,0.064   c0.045,0.045,0.107,0.072,0.175,0.072c0,0,0,0,0.001,0c0.002,0,0.003,0,0.005,0h0l18.488-0.066c0.001,0,0.002,0,0.003,0   c0.034-0.001,0.057-0.025,0.086-0.037c0.03-0.013,0.066-0.015,0.088-0.038c0.022-0.022,0.022-0.056,0.035-0.085   c0.013-0.03,0.037-0.055,0.037-0.09c0-0.001-0.001-0.001-0.001-0.002s0.001-0.001,0.001-0.002l-0.132-7.885   c-0.002-0.136-0.096-0.263-0.249-0.245c0,0-0.001,0-0.001,0H36.778c-0.001,0-0.002,0-0.003,0l-6.098,0.066   c-0.018,0-0.029,0.016-0.046,0.02c-0.017,0.003-0.033-0.006-0.05,0l-0.928,0.397c-0.024,0.01-0.032,0.036-0.051,0.052   c-0.019,0.015-0.044,0.018-0.058,0.039l-0.53,0.795c-0.016,0.024-0.009,0.052-0.015,0.078c-0.007,0.026-0.028,0.046-0.026,0.075   L29.039,42.54C29.039,42.54,29.039,42.54,29.039,42.54z M29.919,40.747l0.814-0.349l6.048-0.066h10.755l0.021,1.223H29.885   c-0.138,0-0.25,0.112-0.25,0.25v0.332c0,0.138,0.112,0.25,0.25,0.25H47.57l0.005,0.295H29.951c-0.138,0-0.25,0.112-0.25,0.25v0.464   c0,0.138,0.112,0.25,0.25,0.25h17.64l0.007,0.428H30.15c-0.138,0-0.25,0.112-0.25,0.25v0.331c0,0.138,0.112,0.25,0.25,0.25h17.462   l0.007,0.443c-0.014-0.002-0.023-0.016-0.037-0.016H30.084c-0.138,0-0.25,0.112-0.25,0.25v0.53c0,0.138,0.112,0.25,0.25,0.25   h17.499c0.021,0,0.035-0.017,0.054-0.022l0.023,1.379l-17.995,0.065l-0.126-5.255c0-0.002-0.002-0.003-0.002-0.004   c0-0.001,0.001-0.002,0.001-0.004l-0.062-1.11L29.919,40.747z M47.333,45.832v0.03H30.334v-0.03H47.333z"></path><path d="M48.047,53.283H32.459c-0.138,0-0.25,0.112-0.25,0.25v0.331c0,0.138,0.112,0.25,0.25,0.25h15.587   c0.138,0,0.25-0.112,0.25-0.25v-0.331C48.297,53.396,48.185,53.283,48.047,53.283z"></path><path d="M34.384,54.858v0.331c0,0.138,0.112,0.25,0.25,0.25h13.678c0.138,0,0.25-0.112,0.25-0.25v-0.331   c0-0.138-0.112-0.25-0.25-0.25H34.634C34.496,54.608,34.384,54.721,34.384,54.858z"></path><path d="M15.241,38.136c0.007,0.033,0.016,0.057,0.035,0.084c0.019,0.028,0.038,0.046,0.066,0.065   c0.015,0.01,0.019,0.028,0.036,0.035c0.03,0.012,0.062,0.018,0.093,0.018h0l34.429-0.1c0.039,0,0.066-0.025,0.098-0.041   c0.032,0.016,0.06,0.041,0.098,0.041l34.43,0.1c0.001,0,0.001,0,0.001,0c0.031,0,0.062-0.006,0.093-0.018   c0.017-0.007,0.022-0.025,0.036-0.035c0.028-0.018,0.048-0.037,0.067-0.065c0.018-0.027,0.028-0.051,0.035-0.084   c0.004-0.017,0.02-0.029,0.02-0.047c0-0.017-0.015-0.028-0.018-0.044c-0.003-0.017,0.007-0.033,0.001-0.049l-0.199-0.497   c0-0.001-0.002-0.001-0.002-0.002c-0.015-0.037-0.052-0.058-0.083-0.084c-0.019-0.016-0.029-0.042-0.051-0.051   c-0.001,0-0.001-0.001-0.001-0.001l-2.189-0.896c-0.016-0.006-0.031,0.003-0.047,0c-0.016-0.003-0.026-0.018-0.042-0.019   l-4.576-0.1l-5.066-0.298c-0.002,0-0.003,0.002-0.005,0.002c-0.002,0-0.003-0.002-0.005-0.002l-22.489-0.398   c-0.002,0-0.003,0-0.004,0c-0.001,0-0.001,0.001-0.001,0.001c-0.001,0-0.001-0.001-0.002-0.001l-22.489,0.398   c-0.002,0-0.003,0.002-0.005,0.002c-0.002,0-0.003-0.002-0.005-0.002l-5.067,0.298l-4.576,0.1c-0.017,0-0.027,0.015-0.043,0.019   c-0.016,0.003-0.031-0.007-0.047,0l-2.189,0.896c-0.001,0-0.001,0.001-0.001,0.001c-0.025,0.01-0.036,0.038-0.057,0.056   c-0.029,0.026-0.064,0.045-0.078,0.08c0,0.001-0.001,0.001-0.001,0.001l-0.199,0.497c-0.006,0.016,0.003,0.032,0.001,0.048   c-0.003,0.017-0.019,0.028-0.019,0.045C15.222,38.107,15.237,38.118,15.241,38.136z M15.863,37.782l2.048-0.838l4.531-0.099   c0,0,0,0,0,0c0.003,0,0.006,0,0.009,0l5.067-0.298L50,36.15l22.481,0.398l5.067,0.298c0.003,0,0.006,0,0.008,0c0,0,0,0,0,0   l4.531,0.099l2.048,0.838l0.022,0.055L50.1,37.738c-0.001,0-0.001,0-0.001,0c-0.039,0-0.066,0.025-0.099,0.041   c-0.033-0.016-0.06-0.041-0.099-0.041h0l-34.059,0.099L15.863,37.782z"></path><path d="M30.366,63.661c-0.128-0.017-0.258,0.091-0.271,0.228l-0.447,5.188c-0.012,0.138,0.09,0.259,0.228,0.271   c0.007,0.001,0.015,0.001,0.022,0.001c0.128,0,0.237-0.099,0.249-0.229l0.447-5.188C30.605,63.794,30.503,63.673,30.366,63.661z"></path><path d="M22.543,63.661c-0.138,0.01-0.242,0.129-0.232,0.267l0.358,5.099c0.009,0.132,0.119,0.232,0.249,0.232   c0.006,0,0.012,0,0.018-0.001c0.138-0.01,0.242-0.129,0.232-0.267l-0.358-5.099C22.8,63.754,22.669,63.644,22.543,63.661z"></path><path d="M29.396,63.612l-6.013,0.114c-0.138,0.003-0.248,0.117-0.245,0.255c0.002,0.137,0.114,0.245,0.25,0.245   c0.001,0,0.003,0,0.005,0l6.013-0.114c0.138-0.003,0.248-0.117,0.245-0.255C29.648,63.719,29.547,63.621,29.396,63.612z"></path><path d="M29.16,68.878l-5.211,0.229c-0.138,0.006-0.245,0.123-0.239,0.261c0.006,0.135,0.117,0.239,0.25,0.239   c0.003,0,0.007,0,0.011,0l5.211-0.229c0.138-0.006,0.245-0.123,0.239-0.261C29.415,68.979,29.309,68.879,29.16,68.878z"></path></g></svg>