<svg xmlns:dc="http://purl.org/dc/elements/1.1/" xmlns:cc="http://creativecommons.org/ns#" xmlns:rdf="http://www.w3.org/1999/02/22-rdf-syntax-ns#" xmlns:svg="http://www.w3.org/2000/svg" xmlns="http://www.w3.org/2000/svg" xmlns:sodipodi="http://sodipodi.sourceforge.net/DTD/sodipodi-0.dtd" xmlns:inkscape="http://www.inkscape.org/namespaces/inkscape" viewBox="0 0 46 46.000001" version="1.1" x="0px" y="0px"><g transform="translate(0,-1006.3622)"><path style="color:#000000;font-style:normal;font-variant:normal;font-weight:normal;font-stretch:normal;font-size:medium;line-height:normal;font-family:sans-serif;text-indent:0;text-align:start;text-decoration:none;text-decoration-line:none;text-decoration-style:solid;text-decoration-color:#000000;letter-spacing:normal;word-spacing:normal;text-transform:none;direction:ltr;block-progression:tb;writing-mode:lr-tb;baseline-shift:baseline;text-anchor:start;white-space:normal;clip-rule:nonzero;display:inline;overflow:visible;visibility:visible;opacity:1;isolation:auto;mix-blend-mode:normal;color-interpolation:sRGB;color-interpolation-filters:linearRGB;solid-color:#000000;solid-opacity:1;fill:#000000;fill-opacity:1;fill-rule:nonzero;stroke:none;stroke-width:1;stroke-linecap:round;stroke-linejoin:round;stroke-miterlimit:4;stroke-dasharray:none;stroke-dashoffset:0;stroke-opacity:1;color-rendering:auto;image-rendering:auto;shape-rendering:auto;text-rendering:auto;enable-background:accumulate" d="m 23,1006.3622 c 12.708464,0 22.999989,10.2916 23,23 0,12.7085 -10.291529,23 -23,23 -12.708472,0 -23,-10.2915 -23,-23 1.1e-5,-12.7084 10.291536,-23 23,-23 z m -1,8 c -0.822356,0 -1.5,0.6777 -1.5,1.5 l 0,3 c 0,0.6468 0.421005,1.1976 1,1.4063 l 0,6.5937 c 0,0.4167 -0.09637,0.6394 -0.228516,0.7715 -0.132148,0.1322 -0.354817,0.2285 -0.771484,0.2285 l -6.59375,0 c -0.208516,-0.579 -0.759526,-1 -1.40625,-1 l -3,0 c -0.8223563,0 -1.5,0.6777 -1.5,1.5 l 0,2 c 0,0.8224 0.6776437,1.5 1.5,1.5 l 3,0 c 0.646073,0 1.197243,-0.4219 1.40625,-1 l 6.59375,0 c 0.416667,0 0.639336,0.096 0.771484,0.2285 0.132149,0.1322 0.228516,0.3549 0.228516,0.7715 l 0,6.5918 c -0.578995,0.2085 -1,0.7615 -1,1.4082 l 0,3 c 0,0.8224 0.677644,1.5 1.5,1.5 l 2,0 c 0.822356,0 1.5,-0.6776 1.5,-1.5 l 0,-3 c 0,-0.6467 -0.421005,-1.1997 -1,-1.4082 l 0,-6.5918 c 0,-0.4167 0.09628,-0.6355 0.230469,-0.7676 0.134187,-0.1322 0.36598,-0.2324 0.800781,-0.2324 l 6.5625,0 c 0.209007,0.5781 0.760177,1 1.40625,1 l 3,0 c 0.822356,0 1.5,-0.6776 1.5,-1.5 l 0,-2 c 0,-0.8223 -0.677644,-1.5 -1.5,-1.5 l -3,0 c -0.646723,0 -1.197734,0.421 -1.40625,1 l -6.5625,0 c -0.434801,0 -0.666594,-0.098 -0.800781,-0.2305 C 24.596281,1027.4995 24.5,1027.2789 24.5,1026.8622 l 0,-6.5937 c 0.578995,-0.2087 1,-0.7595 1,-1.4063 l 0,-3 c 0,-0.8223 -0.677644,-1.5 -1.5,-1.5 z m 0,1 2,0 c 0.285662,0 0.5,0.2144 0.5,0.5 l 0,3 c 0,0.2857 -0.214338,0.5 -0.5,0.5 l -2,0 c -0.285662,0 -0.5,-0.2143 -0.5,-0.5 l 0,-3 c 0,-0.2856 0.214338,-0.5 0.5,-0.5 z m 0.5,5 1,0 0,6.5 c 0,0.5833 0.153837,1.1145 0.527344,1.4824 0.373506,0.3678 0.907484,0.5176 1.503906,0.5176 l 6.46875,0 0,1 -6.46875,0 c -0.596422,0 -1.1304,0.1516 -1.503906,0.5195 -0.373507,0.3678 -0.527344,0.8972 -0.527344,1.4805 l 0,6.5 -1,0 0,-6.5 c 0,-0.5833 -0.153633,-1.1106 -0.521484,-1.4785 -0.367852,-0.3678 -0.895183,-0.5215 -1.478516,-0.5215 l -6.5,0 0,-1 6.5,0 c 0.583333,0 1.110664,-0.1536 1.478516,-0.5215 0.367851,-0.3678 0.521484,-0.8951 0.521484,-1.4785 z m -13,7.5 3,0 c 0.285663,0 0.5,0.2144 0.5,0.5 l 0,2 c 0,0.2857 -0.214337,0.5 -0.5,0.5 l -3,0 c -0.285663,0 -0.5,-0.2143 -0.5,-0.5 l 0,-2 c 0,-0.2856 0.214337,-0.5 0.5,-0.5 z m 24,0 3,0 c 0.285662,0 0.5,0.2144 0.5,0.5 l 0,2 c 0,0.2857 -0.214338,0.5 -0.5,0.5 l -3,0 c -0.273667,0 -0.477138,-0.1991 -0.494141,-0.4668 0.0025,-0.039 5.34e-4,-0.077 -0.0059,-0.1152 l 0,-1.8399 c 0.006,-0.036 0.0079,-0.073 0.0059,-0.1093 0.0159,-0.2689 0.219684,-0.4688 0.494141,-0.4688 z m -11.5,11.5 2,0 c 0.285662,0 0.5,0.2144 0.5,0.5 l 0,3 c 0,0.2857 -0.214338,0.5 -0.5,0.5 l -2,0 c -0.285662,0 -0.5,-0.2143 -0.5,-0.5 l 0,-3 c 0,-0.2856 0.214338,-0.5 0.5,-0.5 z"></path></g></svg>